<svg width="32" height="32" viewBox="0 0 32 32" fill="none" xmlns="http://www.w3.org/2000/svg">
<path d="M26.6664 14.9996L26.7693 15.0048C27.2733 15.0563 27.6664 15.4821 27.6664 15.9996C27.6664 16.5172 27.2733 16.9429 26.7693 16.9944L26.6664 16.9996H5.3331C4.78081 16.9996 4.3331 16.5519 4.3331 15.9996C4.3331 15.4473 4.78081 14.9996 5.3331 14.9996H26.6664Z" fill="#EAA700"/>
<path d="M11.4071 8.5286C11.8518 8.20119 12.4768 8.29618 12.8042 8.74084C13.1316 9.18553 13.0367 9.81049 12.592 10.138V10.1393C12.5914 10.1397 12.5907 10.1409 12.5894 10.1419C12.5866 10.144 12.581 10.1466 12.5751 10.151C12.5632 10.1598 12.5451 10.1726 12.5217 10.1901C12.4745 10.2252 12.4051 10.2777 12.316 10.345C12.1372 10.48 11.8803 10.6764 11.5725 10.9166C10.956 11.3977 10.138 12.0549 9.32247 12.763C8.50185 13.4755 7.70651 14.2203 7.12455 14.8789C6.83265 15.2092 6.61499 15.4949 6.47611 15.7252C6.38548 15.8755 6.35159 15.9641 6.3394 15.9999C6.35162 16.0359 6.38557 16.1245 6.47611 16.2747C6.615 16.505 6.83268 16.7907 7.12455 17.121C7.70641 17.7795 8.50071 18.5245 9.32117 19.2369C10.1368 19.9451 10.9559 20.6021 11.5725 21.0833C11.8802 21.3235 12.1373 21.5199 12.316 21.6549C12.4051 21.7222 12.4745 21.7747 12.5217 21.8098C12.5451 21.8273 12.5632 21.8401 12.5751 21.8489C12.581 21.8533 12.5866 21.8559 12.5894 21.858C12.5907 21.859 12.5914 21.8602 12.592 21.8606V21.8619C13.0366 22.1894 13.1316 22.8144 12.8042 23.2591C12.4768 23.7037 11.8518 23.7987 11.4071 23.4713H11.4058L11.4045 23.47C11.4035 23.4693 11.4022 23.4686 11.4006 23.4674L11.3277 23.4127C11.2772 23.3751 11.2032 23.3202 11.1102 23.2499C10.9244 23.1096 10.6591 22.9076 10.342 22.6601C9.70868 22.1658 8.86054 21.4859 8.00997 20.7473C7.16422 20.013 6.29249 19.2012 5.62455 18.4453C5.29159 18.0684 4.98827 17.6816 4.76257 17.3072C4.57956 17.0037 4.38845 16.6117 4.3433 16.1848L4.33289 15.9999L4.3433 15.8151C4.38843 15.3882 4.57956 14.9962 4.76257 14.6927C4.98826 14.3183 5.2916 13.9315 5.62455 13.5546C6.29248 12.7987 7.16423 11.9869 8.00997 11.2526C8.86077 10.5139 9.70993 9.83408 10.3433 9.33979C10.6603 9.09244 10.9244 8.89029 11.1102 8.74995C11.2032 8.67974 11.2772 8.62478 11.3277 8.58719L11.4006 8.5325C11.4021 8.53137 11.4036 8.5306 11.4045 8.5299L11.4058 8.5286H11.4071Z" fill="#EAA700"/>
</svg>
