<svg width="76" height="32" viewBox="0 0 76 32" fill="none" xmlns="http://www.w3.org/2000/svg">
<path d="M32 24C32 28.4183 28.4183 32 24 32L8 32C3.58172 32 3.13124e-07 28.4183 6.99382e-07 24L2.09815e-06 8C2.4844e-06 3.58172 3.58173 -2.4844e-06 8 -2.09815e-06L24 -6.99382e-07C28.4183 -3.13124e-07 32 3.58172 32 8L32 24Z" fill="#EAA700"/>
<path d="M10.6666 16.5001C10.3904 16.5001 10.1666 16.2763 10.1666 16.0001C10.1666 15.724 10.3904 15.5001 10.6666 15.5001L21.3333 15.5001C21.6094 15.5001 21.8333 15.724 21.8333 16.0001C21.8333 16.2763 21.6094 16.5001 21.3333 16.5001L10.6666 16.5001Z" fill="white"/>
<path d="M14.4022 19.6295C14.2385 19.8519 13.926 19.8994 13.7036 19.7356L13.703 19.7356L13.7023 19.735C13.7019 19.7346 13.7012 19.7343 13.7004 19.7337L13.6639 19.7064C13.6387 19.6876 13.6017 19.6601 13.5552 19.625C13.4623 19.5548 13.3302 19.4537 13.1717 19.33C12.855 19.0829 12.4305 18.743 12.0051 18.3737C11.5822 18.0065 11.1463 17.6006 10.8124 17.2226C10.6459 17.0342 10.4942 16.8408 10.3814 16.6536C10.2768 16.4801 10.1665 16.249 10.1665 16C10.1665 15.7509 10.2768 15.5198 10.3814 15.3463C10.4942 15.1591 10.6459 14.9657 10.8124 14.7773C11.1463 14.3993 11.5822 13.9934 12.0051 13.6263C12.4304 13.257 12.8544 12.917 13.1711 12.6699C13.3296 12.5462 13.4623 12.4452 13.5552 12.375C13.6017 12.3399 13.6387 12.3124 13.6639 12.2936L13.7004 12.2662C13.7012 12.2657 13.7019 12.2653 13.7023 12.2649L13.703 12.2643L13.7036 12.2643C13.926 12.1006 14.2385 12.1481 14.4022 12.3704C14.5659 12.5928 14.5184 12.9052 14.2961 13.069L14.2961 13.0696C14.2958 13.0699 14.2955 13.0704 14.2948 13.0709C14.2934 13.072 14.2906 13.0733 14.2876 13.0755C14.2817 13.0799 14.2726 13.0863 14.2609 13.095C14.2374 13.1126 14.2026 13.1389 14.1581 13.1725C14.0687 13.24 13.9402 13.3382 13.7863 13.4583C13.478 13.6989 13.0685 14.0274 12.6607 14.3815C12.2504 14.7377 11.8533 15.1102 11.5624 15.4394C11.4164 15.6046 11.3076 15.7474 11.2381 15.8626C11.1929 15.9377 11.1759 15.982 11.1698 16C11.1759 16.0179 11.1928 16.0622 11.2381 16.1373C11.3076 16.2525 11.4164 16.3953 11.5624 16.5605C11.8533 16.8898 12.251 17.2622 12.6613 17.6185C13.0691 17.9725 13.4781 18.3011 13.7863 18.5416C13.9402 18.6617 14.0687 18.76 14.1581 18.8274C14.2026 18.8611 14.2374 18.8874 14.2609 18.9049C14.2726 18.9136 14.2817 18.9201 14.2876 18.9245C14.2906 18.9266 14.2934 18.928 14.2948 18.929C14.2955 18.9295 14.2958 18.9301 14.2961 18.9303L14.2961 18.931C14.5184 19.0947 14.5659 19.4072 14.4022 19.6295Z" fill="white"/>
<path d="M44 8C44 3.58172 47.5817 0 52 0L68 0C72.4183 0 76 3.58172 76 8V24C76 28.4183 72.4183 32 68 32L52 32C47.5817 32 44 28.4183 44 24V8Z" fill="#EBEBEB"/>
<path d="M65.3334 15.4999C65.6096 15.4999 65.8334 15.7237 65.8334 15.9999C65.8334 16.276 65.6096 16.4999 65.3334 16.4999H54.6667C54.3906 16.4999 54.1667 16.276 54.1667 15.9999C54.1667 15.7237 54.3906 15.4999 54.6667 15.4999H65.3334Z" fill="#717171"/>
<path d="M61.5978 12.3705C61.7615 12.1481 62.074 12.1006 62.2964 12.2644H62.297L62.2977 12.265C62.2981 12.2654 62.2988 12.2657 62.2996 12.2663L62.3361 12.2936C62.3613 12.3124 62.3983 12.3399 62.4448 12.375C62.5377 12.4452 62.6698 12.5463 62.8283 12.67C63.145 12.9171 63.5695 13.257 63.9949 13.6263C64.4178 13.9935 64.8537 14.3994 65.1876 14.7774C65.3541 14.9658 65.5058 15.1592 65.6186 15.3464C65.7232 15.5199 65.8335 15.751 65.8335 16C65.8335 16.2491 65.7232 16.4802 65.6186 16.6537C65.5058 16.8409 65.3541 17.0343 65.1876 17.2227C64.8537 17.6007 64.4178 18.0066 63.9949 18.3737C63.5696 18.743 63.1456 19.083 62.8289 19.3301C62.6704 19.4538 62.5377 19.5548 62.4448 19.625C62.3983 19.6601 62.3613 19.6876 62.3361 19.7064L62.2996 19.7338C62.2988 19.7343 62.2981 19.7347 62.2977 19.7351L62.297 19.7357H62.2964C62.074 19.8994 61.7615 19.8519 61.5978 19.6296C61.4341 19.4072 61.4816 19.0948 61.7039 18.931L61.7039 18.9304C61.7042 18.9301 61.7045 18.9296 61.7052 18.9291C61.7066 18.928 61.7094 18.9267 61.7124 18.9245C61.7183 18.9201 61.7274 18.9137 61.7391 18.905C61.7626 18.8874 61.7974 18.8611 61.8419 18.8275C61.9313 18.76 62.0598 18.6618 62.2137 18.5417C62.522 18.3011 62.9315 17.9726 63.3393 17.6185C63.7496 17.2623 64.1467 16.8898 64.4376 16.5606C64.5836 16.3954 64.6924 16.2526 64.7619 16.1374C64.8071 16.0623 64.8241 16.018 64.8302 16C64.8241 15.9821 64.8072 15.9378 64.7619 15.8627C64.6924 15.7475 64.5836 15.6047 64.4376 15.4395C64.1467 15.1102 63.749 14.7378 63.3387 14.3815C62.9309 14.0275 62.5219 13.6989 62.2137 13.4584C62.0598 13.3383 61.9313 13.24 61.8419 13.1726C61.7974 13.1389 61.7626 13.1126 61.7391 13.0951C61.7274 13.0864 61.7183 13.0799 61.7124 13.0755C61.7094 13.0734 61.7066 13.072 61.7052 13.071C61.7045 13.0705 61.7042 13.0699 61.7039 13.0697L61.7039 13.069C61.4816 12.9053 61.4341 12.5928 61.5978 12.3705Z" fill="#717171"/>
</svg>
