<svg width="97" height="82" viewBox="0 0 97 82" fill="none" xmlns="http://www.w3.org/2000/svg">
<g opacity="0.2" clip-path="url(#clip0_0_153)">
<path d="M88.8555 7.85764C88.2055 7.34611 87.4331 7.01083 86.6073 6.9091C86.1389 6.85178 85.6763 6.9091 85.2079 6.93489C84.5075 6.97071 84.0103 6.82313 83.4814 6.36175C82.6614 5.64677 81.9264 4.99196 80.9032 4.56927C79.9693 4.18384 78.9259 4.00043 77.9157 4.05201C76.0061 4.14945 74.049 4.99052 73.1656 6.76438C73.0099 7.07817 72.8889 7.40343 72.7909 7.73441C70.7012 4.21966 66.2293 2.23374 62.4881 1.14048C61.449 0.836722 60.3955 0.59887 59.329 0.4169C51.5886 -0.855462 43.6723 0.949916 36.406 3.57345C28.9321 6.27292 21.7768 10.1559 15.9459 15.5835C10.5041 20.6486 6.34632 27.1007 4.63999 34.3623C3.856 37.7008 3.27233 41.3503 5.01469 44.4925C5.08819 44.6243 5.16457 44.7533 5.24528 44.8837C5.2424 44.8865 5.23807 44.8908 5.23519 44.8937C4.46705 45.782 4.24223 46.9283 4.58235 47.9686C2.48978 48.2064 0.372724 49.7539 0.0412579 51.8387C-0.15474 53.0752 0.315078 54.2731 1.30371 55.0497C2.02573 55.6156 2.89619 55.9151 3.78971 56.1128C2.62237 57.4869 2.16552 59.4829 3.59803 60.9186C4.09091 61.4115 4.63567 61.6407 5.19484 61.688C4.89796 62.1479 4.70052 62.6595 4.73655 63.1552C4.78987 63.9075 5.58539 64.429 6.34344 64.7987C5.4701 65.9751 5.30725 67.5942 6.31606 68.8078C7.26866 69.9541 8.64353 69.934 9.94489 69.6001C9.70998 70.0286 9.48228 70.4627 9.26467 70.9012C9.18396 71.0616 9.16811 71.2221 9.19981 71.364C8.82079 72.2753 9.26034 73.2911 10.0876 73.8428C11.2852 74.6423 12.7479 74.0907 13.9542 73.6236C15.1835 73.1479 16.4402 72.761 17.7113 72.4271C17.8626 73.5276 18.3425 74.5921 18.9377 75.5163C19.997 77.1584 21.4799 78.4966 23.1675 79.4839C25.5512 80.878 28.2793 81.5873 31.0146 81.8624C35.0628 82.2693 39.186 81.7506 43.1333 80.8522C49.0622 79.5025 54.7764 77.2529 60.2615 74.671C67.1963 71.407 73.9957 67.64 80.1812 63.1108C84.189 60.1749 88.083 56.812 90.8673 52.664C92.5275 50.1909 93.7929 47.3266 93.8923 44.3177C93.9615 42.2444 93.4513 40.1624 92.3935 38.3714C91.6686 37.1435 90.7045 35.9929 89.5227 35.1733C89.4478 35.1217 89.3729 35.0716 89.295 35.0243C91.8516 32.1815 94.3564 29.2929 96.8063 26.3585C97.0297 26.0905 97.0816 25.7595 96.8352 25.4758C96.0843 24.6133 95.1476 23.9785 94.0797 23.5888C94.0595 23.5802 94.0379 23.573 94.0148 23.5659C93.937 23.5386 93.8606 23.5085 93.7799 23.4828C93.5998 23.4254 93.4398 23.4484 93.313 23.5186C92.7524 23.4971 92.1932 23.477 91.6326 23.4555C91.7825 22.8982 91.7854 22.3035 91.6254 21.7404C91.487 21.2547 91.2334 20.8392 90.9048 20.458C90.7175 20.2402 90.3903 19.9924 90.3745 19.6814C90.3629 19.4421 90.5733 19.1699 90.6771 18.9722C91.1484 18.0824 91.2492 17.1267 90.6108 16.277C90.3139 15.8815 89.9118 15.6136 89.4665 15.4674C90.3701 14.6794 90.9668 13.6434 90.9653 12.1404C90.9653 10.4926 90.1482 8.87925 88.8526 7.8605L88.8555 7.85764ZM49.1256 1.57177C49.1343 1.65058 49.1718 1.72938 49.2481 1.80102C49.46 2.00162 49.3375 2.37129 49.1804 2.54323C49.0637 2.67076 48.8187 2.76389 48.6573 2.80831C48.2782 2.91434 47.8689 2.88712 47.4928 2.78682C46.9841 2.65213 46.5344 2.37416 46.1194 2.0532C47.1181 1.85977 48.1212 1.69786 49.1256 1.57034V1.57177ZM20.2737 13.5718C21.0043 13.0116 21.7523 12.4714 22.5118 11.9513C22.4758 12.4929 22.3878 13.0431 22.0766 13.4959C21.6716 14.0848 20.5432 14.4931 20.2722 13.5718H20.2737ZM5.18907 38.6823C5.86498 31.7044 9.01967 25.0818 13.604 19.8047C15.4213 17.7127 17.4375 15.8171 19.5992 14.1005C20.0243 14.8714 21.0187 15.1866 21.8575 14.774C23.0839 14.1707 23.3232 12.7565 23.3707 11.5343C23.3722 11.4799 23.365 11.4326 23.3505 11.3896C26.1032 9.57991 29.0258 8.01382 32.0321 6.67268C36.161 4.83005 40.5681 3.24389 45.076 2.27099C46.0891 3.14073 47.3285 3.95458 48.7322 3.64652C49.7093 3.4316 50.6936 2.37846 50.0595 1.46717C51.3277 1.33535 52.5974 1.25941 53.8671 1.24938C55.6786 1.23648 57.4858 1.3726 59.2743 1.66634C61.4504 2.03887 63.6064 2.70944 65.6154 3.61786C67.6777 4.55064 69.7111 5.79721 71.1436 7.5725C72.4926 9.24319 72.971 11.338 72.383 13.4113C71.7489 15.6466 70.2386 17.5422 68.6303 19.1814C65.588 22.2806 61.9966 24.8654 58.3937 27.2755C53.8094 30.3432 49.0305 33.1258 44.1565 35.7135C39.1802 38.3556 34.09 40.7972 28.8803 42.9493C24.5424 44.7404 20.0921 46.3896 15.502 47.4226C14.5753 47.6318 13.6184 47.8582 12.6701 47.9456C11.3875 48.0646 10.0991 47.6189 9.02111 46.9527C6.11862 45.1602 4.86914 41.9807 5.18763 38.6838L5.18907 38.6823ZM10.5977 68.0914C9.62207 68.4582 8.22415 68.9683 7.36666 68.1C6.43423 67.1572 6.93576 65.7902 7.82927 65.0437C8.22559 64.7127 7.98636 64.1668 7.58716 63.992C7.14761 63.8 6.02206 63.3702 6.06241 62.8214C6.10133 62.2955 6.73976 61.7353 7.11878 61.4344C7.22399 61.3499 7.2874 61.2553 7.31766 61.1564C7.83648 60.8856 8.32647 60.5446 8.76026 60.1993C10.8125 60.824 13.1457 61.2481 15.1705 60.3655C15.1042 60.953 15.1691 61.5433 15.3507 62.1007C15.2613 62.1293 15.172 62.1852 15.0913 62.2769C13.5031 64.0765 12.0807 66.0023 10.8413 68.0441C10.7635 68.0441 10.6828 68.057 10.6006 68.0885L10.5977 68.0914ZM91.8848 40.1338C92.2119 40.8946 92.4757 41.879 92.591 42.8476C92.872 45.2218 92.1471 47.8181 90.997 50.0061C88.9953 53.816 85.8406 56.951 82.5547 59.682C77.1057 64.2112 70.9145 67.8306 64.6397 71.1003C58.8765 74.1036 52.8943 76.7944 46.6454 78.6385C39.9455 80.6158 31.9773 82.0615 25.3048 79.1729C23.5163 78.3992 21.9368 77.2959 20.6902 75.8C20.2103 75.224 19.8903 74.7598 19.5156 73.9918C19.4407 73.8385 19.3787 73.7081 19.3239 73.5906C19.801 73.8643 20.3529 74.0333 20.8905 74.1251C22.6458 74.4274 24.4977 74.1551 26.2271 73.817C32.4111 72.6091 38.3775 70.0329 44.0672 67.4136C48.6501 65.3045 53.1364 62.9919 57.555 60.5604C60.2961 59.5832 63.0386 58.6074 65.7811 57.6302C66.6544 57.3193 67.5263 57.0084 68.3997 56.6974C69.1966 56.4137 70.0599 56.1816 70.7603 55.6944C71.3714 55.2703 71.7331 54.6657 72.1063 54.0409C72.5329 53.3245 72.9955 52.6325 73.4942 51.9633C73.5518 51.8874 73.6095 51.8114 73.6671 51.7355C75.8951 50.2826 78.1405 48.8684 80.2964 47.3066C81.9062 46.1403 83.4828 44.9209 84.9572 43.5869C86.2355 42.4306 87.508 41.1669 88.413 39.691C88.9953 38.7425 89.4406 37.5977 89.2259 36.5058C89.2705 36.5431 89.3167 36.5818 89.3599 36.6205C89.8643 37.0718 90.3168 37.569 90.7275 38.1078C90.8947 38.327 90.8097 38.2081 90.9624 38.4402C91.0821 38.6221 91.1988 38.8055 91.3083 38.9933C91.5231 39.3615 91.7162 39.7426 91.8848 40.1352V40.1338ZM19.4032 72.0116C21.0101 71.6448 22.6328 71.3396 24.2484 71.0315C27.7504 70.3638 31.2034 69.5586 34.6161 68.5284C38.0633 67.4896 41.4601 66.2917 44.8512 65.0853C46.3644 64.5465 47.8776 64.0078 49.3908 63.4676C44.8512 65.763 40.2222 67.8879 35.4736 69.7033C32.8665 70.7006 30.2105 71.6047 27.4939 72.2595C25.6996 72.6922 23.8232 73.0733 21.967 72.9874C21.3502 72.9587 20.5907 72.8427 20.1425 72.622C19.8831 72.4945 19.7116 72.3655 19.6035 72.2552C19.507 72.1563 19.4522 72.0962 19.4003 72.0088L19.4032 72.0116ZM76.561 48.3941C77.871 47.02 79.2401 45.6989 80.5602 44.3478C83.0635 41.7859 85.5178 39.1767 87.9303 36.5288C88.2156 37.3455 87.8049 38.2983 87.3221 39.0749C86.4718 40.4433 85.2901 41.601 84.0997 42.6771C81.7621 44.792 79.1882 46.646 76.561 48.3941ZM95.5396 25.9315C91.3155 30.9693 86.9373 35.8768 82.4005 40.6396C80.1163 43.0382 77.7413 45.3493 75.4657 47.7536C74.5347 48.7366 73.6325 49.7496 72.801 50.8185C72.7981 50.8213 72.7938 50.8228 72.7909 50.8256C72.6453 50.9202 72.5618 51.0477 72.5228 51.1839C72.4926 51.224 72.4609 51.2641 72.432 51.3042C71.9593 51.939 71.5155 52.5952 71.1091 53.2744C70.6695 54.0108 70.3164 54.6012 69.4993 54.9737C67.8938 55.7059 66.1313 56.1931 64.4682 56.7863C62.8094 57.3766 61.1507 57.9683 59.4919 58.5587C58.7151 58.8352 57.9383 59.1118 57.1615 59.3883C57.1068 59.3998 57.0506 59.4184 56.9929 59.4485C54.5084 60.334 52.0238 61.218 49.5393 62.1035C43.0656 64.409 36.6092 66.8591 29.9323 68.537C26.2732 69.4569 22.5363 69.9999 18.8628 70.8539C17.1175 71.2594 15.3939 71.7508 13.7164 72.3842C12.9684 72.6664 12.0735 73.135 11.2463 72.9831C10.7635 72.8942 10.0544 72.3383 10.3787 71.7881C10.3787 71.7881 10.3787 71.7852 10.3801 71.7852C13.9038 71.3482 17.3279 70.3925 20.6974 69.295C24.3493 68.1057 27.9738 66.8305 31.6069 65.5911C39.0894 63.0392 46.5719 60.4858 54.0544 57.934C58.1761 56.5283 62.2978 55.1227 66.4195 53.7157C66.6328 53.8776 66.9297 53.9062 67.1689 53.6483C74.209 46.103 81.249 38.5562 88.2877 31.0109C90.1886 28.9734 92.0909 26.9345 93.9918 24.897C94.5668 25.152 95.0798 25.4973 95.5352 25.9315H95.5396ZM92.4411 24.7336C85.721 31.9365 79.0008 39.1394 72.2807 46.3423C70.4029 48.3554 68.5236 50.3686 66.6458 52.3817C66.5694 52.3745 66.4844 52.3817 66.3922 52.4147C51.4819 57.4998 36.5991 62.6709 21.6601 67.6687C18.1422 68.845 14.5768 69.9211 10.9018 70.457C12.294 67.8693 13.9686 65.442 15.9127 63.2297C16.126 63.5378 16.3768 63.8258 16.6693 64.0794C17.9577 65.2042 19.5228 65.4034 21.1686 65.3876C23.8362 65.3604 26.4937 64.9033 29.0791 64.2743C35.5903 62.6881 41.8449 60.0302 47.8473 57.0986C54.2576 53.9679 60.4632 50.4087 66.4296 46.5071C71.1999 43.3878 75.947 40.0736 80.1293 36.192C81.3975 35.0143 82.6888 33.7562 83.627 32.2933C85.1459 29.9234 85.035 26.7124 83.4843 24.3983C85.7383 24.4829 87.9922 24.566 90.2462 24.6505C90.4523 24.7852 90.7333 24.821 90.9596 24.6777C91.4539 24.6964 91.9482 24.715 92.4425 24.7336H92.4411ZM82.7363 31.3433C81.9754 32.6673 80.8816 33.7433 79.7704 34.8079C76.0133 38.4101 71.7129 41.4821 67.3938 44.3764C61.8424 48.0975 56.0691 51.5019 50.1215 54.5596C44.3237 57.5414 38.3227 60.2566 32.071 62.158C29.4726 62.9489 26.8165 63.6023 24.1172 63.9376C21.6399 64.2456 17.8641 64.7614 16.6232 61.9774C16.2572 61.1578 16.3364 60.311 16.7039 59.5101C16.7544 59.4012 16.7688 59.3009 16.7587 59.2106C17.7502 58.1159 18.3022 56.6616 19.3542 55.5512C20.1094 54.7531 21.2032 54.3275 22.0996 53.7042C22.9585 53.1082 23.6892 52.3817 24.3233 51.5535C25.6737 49.7883 26.6493 47.6347 29.1887 47.5645C31.0506 47.5129 33.0596 48.2078 34.8337 47.3725C35.8483 46.8939 36.429 45.9826 36.9104 45.014C37.4379 43.9494 38.0258 43.0167 38.9539 42.2501C40.7395 40.7757 43.1838 40.1825 45.4622 40.1324C46.6195 40.1066 47.794 40.3673 48.9441 40.2441C50.1143 40.118 50.8997 39.4389 51.3839 38.4001C51.8595 37.3813 52.2212 36.4227 53.0384 35.6074C53.8426 34.8051 54.8542 34.2104 55.9611 33.931C58.1646 33.3736 60.3998 34.4268 62.563 33.5012C64.5042 32.6701 65.7595 30.8218 67.0594 29.2571C67.7411 28.4375 68.4717 27.605 69.3624 27.0047C70.2545 26.4029 71.2705 26.1349 72.3268 25.9888C74.3906 25.7022 76.7325 25.8928 78.5469 24.6949C79.1868 24.2723 79.658 23.7249 80.0327 23.0945C81.8169 23.8653 83.0375 25.5203 83.369 27.413C83.539 28.3845 83.4598 29.3918 83.1658 30.3317C83.1024 30.5338 83.0303 30.7329 82.9496 30.9278C82.9021 31.0424 82.9121 31.0138 82.9193 30.9994C82.8631 31.1155 82.8012 31.2301 82.7378 31.3419L82.7363 31.3433ZM89.7994 17.9033C89.6423 18.5495 89.1149 18.9951 89.1279 19.7044C89.1437 20.5755 89.8513 20.9638 90.2448 21.6473C90.5633 22.2018 90.5618 22.8423 90.3226 23.4039C87.6651 23.3051 85.0076 23.2062 82.3515 23.1059C81.8226 22.6431 81.2274 22.2734 80.5832 21.9811C80.9911 21.0441 81.3629 20.1184 82.1541 19.4121C83.5535 18.1641 85.8146 17.5436 87.6968 16.6023C87.8135 16.6725 87.9634 16.6983 88.1392 16.6495C88.9621 16.4246 90.0459 16.886 89.7994 17.9018V17.9033ZM89.3772 13.5446C88.3568 15.4875 85.8161 16.1094 83.9498 16.9189C82.9756 17.3416 82.0085 17.8431 81.2231 18.5695C80.3743 19.3533 79.9174 20.3477 79.4764 21.3908C79.0225 22.4669 78.4864 23.3968 77.3911 23.9169C76.4284 24.374 75.3072 24.4657 74.258 24.5574C72.0588 24.7508 69.9633 24.9328 68.1677 26.3441C66.4671 27.6795 65.3761 29.5996 63.8399 31.0954C63.1063 31.809 62.2575 32.4179 61.2342 32.6243C60.041 32.865 58.8246 32.5311 57.627 32.5039C55.4336 32.4552 53.2603 33.4252 51.8278 35.0787C51.0741 35.9499 50.7297 36.9171 50.2325 37.9301C49.5767 39.2669 48.3215 39.0291 47.0518 38.9302C44.7344 38.7511 42.3248 39.0606 40.2006 40.0278C39.1975 40.4848 38.2507 41.1139 37.4825 41.9048C36.664 42.7473 36.1841 43.7288 35.6436 44.7533C35.1133 45.7591 34.4157 46.3996 33.2513 46.5142C32.2655 46.6117 31.2611 46.424 30.2796 46.3538C29.291 46.2821 28.2908 46.305 27.3541 46.6575C26.2977 47.0558 25.4964 47.8181 24.8162 48.6936C24.1216 49.5862 23.5754 50.5892 22.8115 51.4289C22.0722 52.2413 21.209 52.8273 20.2693 53.3847C19.3023 53.9593 18.4982 54.5267 17.8381 55.4494C17.2112 56.3263 16.7659 57.3336 16.0669 58.1604C14.3649 60.1706 11.4855 59.7178 9.24161 59.0458C8.60606 58.8553 8.40718 58.8839 7.89557 59.298C7.48051 59.6347 7.0424 59.9514 6.55529 60.1807C5.49172 60.6807 4.30564 60.4085 4.00876 59.1504C3.71621 57.9082 4.61693 56.855 5.56233 56.1802C6.05377 55.8291 5.62142 55.1714 5.16169 55.1012C3.43807 54.8376 0.767601 54.1699 1.30948 51.8573C1.71732 50.1164 3.89635 49.0188 5.58395 49.2108C6.17194 49.2767 6.38668 48.5503 6.07106 48.1606C5.56233 47.533 5.5263 46.5902 5.99468 45.9325C7.47763 47.7436 9.64946 49.1034 12 49.2008C13.0131 49.2438 14.0508 49.0002 15.0379 48.7967C16.103 48.5775 17.1579 48.3139 18.2056 48.0244C20.5893 47.3653 22.9312 46.5687 25.2471 45.7075C30.6687 43.6915 35.9491 41.2944 41.1099 38.6924C46.3514 36.0502 51.4863 33.1831 56.4366 30.0323C60.5511 27.4145 64.6339 24.6176 68.2239 21.3091C71.3382 18.4377 74.8806 14.2667 73.6628 9.77334C73.6743 9.73466 73.6844 9.69454 73.6887 9.65155C73.8055 8.68868 73.9813 7.66277 74.565 6.85752C75.1616 6.03507 76.1531 5.58659 77.1302 5.39602C78.2024 5.18539 79.3251 5.29859 80.344 5.68832C81.471 6.1196 82.1483 6.97214 83.0966 7.65131C84.0679 8.34624 85.0508 8.10839 86.1576 8.12988C86.9877 8.14564 87.7559 8.50385 88.3525 9.06982C89.5141 10.1688 90.1554 12.0559 89.3743 13.5446H89.3772Z" fill="#FFDB6E"/>
<path d="M24.9407 59.7494C23.6523 59.6305 22.4071 59.278 21.2556 58.6906C20.5423 58.3266 19.8692 59.3812 20.5898 59.7494C21.9402 60.4372 23.3712 60.857 24.883 60.996C25.6901 61.0705 25.742 59.8225 24.9407 59.7494Z" fill="#FFDB6E"/>
<path d="M28.9428 51.7628C29.1114 52.8016 29.2814 53.8404 29.4501 54.8792C29.5798 55.6744 30.8047 55.4036 30.6765 54.6141C30.5079 53.5753 30.3378 52.5365 30.1692 51.4977C30.0395 50.7025 28.8145 50.9733 28.9428 51.7628Z" fill="#FFDB6E"/>
<path d="M42.5776 48.9587C41.7763 48.9974 41.7129 50.244 42.5199 50.2053C44.023 50.1336 45.5017 50.403 46.8592 51.0607C47.5784 51.4089 48.2514 50.3543 47.525 50.0018C45.9744 49.2496 44.3069 48.8756 42.5776 48.9587Z" fill="#FFDB6E"/>
<path d="M55.6662 37.7783C55.2886 39.0764 54.7265 40.28 53.9757 41.4062C53.5289 42.0753 54.5925 42.7373 55.0407 42.0682C55.8463 40.8589 56.4588 39.5435 56.8652 38.1508C57.09 37.3799 55.8924 37.006 55.6676 37.7797L55.6662 37.7783Z" fill="#FFDB6E"/>
<path d="M68.2431 34.7808C67.439 34.8037 67.377 36.0517 68.1855 36.0273C69.631 35.9844 71.0318 36.1907 72.4023 36.6535C73.169 36.9128 73.5408 35.7207 72.7756 35.4628C71.3128 34.967 69.7881 34.7349 68.2431 34.7808Z" fill="#FFDB6E"/>
<path d="M76.9492 27.9748C75.9908 28.7284 75.031 29.4807 74.0726 30.2344C73.44 30.7316 74.2989 31.6414 74.9301 31.1456C75.8885 30.392 76.8483 29.6397 77.8067 28.8861C78.4393 28.3889 77.5804 27.479 76.9492 27.9748Z" fill="#FFDB6E"/>
<path d="M19.4715 21.3192C19.8995 20.3721 20.071 19.339 20.0004 18.3045C19.9917 18.1784 19.937 18.0796 19.8592 18.0108C20.0263 17.6884 19.6949 17.2156 19.3086 17.4434C18.5376 17.8976 17.9554 18.5725 17.6455 19.4121C17.3789 20.1357 17.2391 21.2304 17.7652 21.8766C18.3892 22.646 19.1631 22.0013 19.4715 21.3192ZM18.3027 21.0871C18.062 20.1944 18.5102 19.2115 19.1789 18.5753C19.1919 19.0568 19.1544 19.5353 19.042 20.0067C18.9743 20.2919 18.8849 20.5727 18.7725 20.8435C18.6644 21.1072 18.4526 21.6416 18.3027 21.0871Z" fill="#FFDB6E"/>
<path d="M29.8565 16.2713C30.5742 16.6969 31.6075 16.4633 31.8006 15.5836C31.9894 14.7267 31.3452 13.8083 30.7154 13.2953C29.9487 12.6706 29.0033 12.4256 28.0262 12.5502C27.8028 12.5789 27.7063 12.7379 27.7063 12.907C27.6673 13.003 27.6702 13.1162 27.7408 13.2351C28.117 13.8642 28.4845 14.4975 28.8678 15.1222C29.1316 15.552 29.4083 16.0063 29.855 16.2728L29.8565 16.2713ZM30.9445 15.0061C31.0411 15.7111 30.4589 15.7655 30.0496 15.3615C29.868 15.1809 29.7441 14.9503 29.61 14.7353C29.3304 14.284 29.0609 13.8269 28.7914 13.3684C29.721 13.483 30.8163 14.0705 30.9445 15.0061Z" fill="#FFDB6E"/>
<path d="M41.2416 6.77304C41.7662 7.61268 42.4046 8.61854 43.2938 9.05985C44.0216 9.41949 45.0837 9.206 45.3172 8.34343C45.5492 7.48229 44.7652 6.72575 44.0836 6.33889C43.2146 5.84742 42.2057 5.72277 41.2387 5.95345C40.779 6.06378 40.8597 6.70426 41.2431 6.77304H41.2416ZM44.4323 7.76027C44.6341 8.24743 44.2695 8.49388 43.827 8.38069C43.5028 8.29901 43.2535 8.02677 43.0387 7.79035C42.7246 7.44504 42.4435 7.07107 42.1812 6.68277C43.0661 6.68277 44.1095 6.97507 44.4323 7.75883V7.76027Z" fill="#FFDB6E"/>
<path d="M37.6502 13.9286C37.6618 14.966 38.208 18.9364 40.1521 17.9922C41.0038 17.5781 40.939 16.5364 40.6392 15.7985C40.2198 14.7654 39.4488 13.9315 38.4962 13.3569C38.2382 13.2008 37.9831 13.3555 37.8924 13.5704C37.754 13.6177 37.6459 13.7352 37.6488 13.9286H37.6502ZM39.456 15.3486C39.6203 15.5893 39.7601 15.8501 39.8682 16.1209C39.9633 16.3616 40.3034 17.3789 39.5367 17.2313C39.1188 17.1511 38.832 16.0707 38.7527 15.8028C38.6115 15.3314 38.5337 14.8528 38.5034 14.3671C38.8709 14.6422 39.1952 14.966 39.4575 15.35L39.456 15.3486Z" fill="#FFDB6E"/>
<path d="M22.5901 23.3037C21.8725 24.1204 21.3623 25.0675 21.1548 26.1379C20.9861 27.0047 20.9674 28.1768 21.9604 28.5508C22.9793 28.9348 23.4563 27.8917 23.6465 27.0864C23.8958 26.029 23.8367 24.9414 23.4894 23.9141C23.4476 23.7909 23.3669 23.7092 23.2718 23.6619C23.3006 23.3109 22.8784 22.9785 22.5916 23.3037H22.5901ZM22.9648 25.8814C22.9562 26.2095 22.8524 27.9461 22.1751 27.7398C21.5367 27.5449 22.0382 25.943 22.1751 25.559C22.3221 25.1506 22.5224 24.7695 22.7674 24.4156C22.9014 24.8927 22.9764 25.3799 22.9634 25.8814H22.9648Z" fill="#FFDB6E"/>
<path d="M13.5483 29.8188C14.253 28.9821 14.1248 27.8601 13.9605 26.8615C13.9576 26.8428 13.9518 26.8256 13.9461 26.8084C14.0902 26.5333 13.8928 26.1021 13.5008 26.1952C12.5482 26.4201 11.7065 27.0047 11.2266 27.8644C10.8346 28.5665 10.5939 29.5509 11.3261 30.1255C12.0308 30.68 12.9978 30.4751 13.5498 29.8188H13.5483ZM12.2513 27.8458C12.5078 27.5521 12.8177 27.3314 13.165 27.1795C13.2586 27.7412 13.3523 28.3487 13.1376 28.8904C12.9488 29.3675 12.074 30.0753 11.7137 29.3216C11.5019 28.8803 11.9717 28.1682 12.2513 27.8458Z" fill="#FFDB6E"/>
<path d="M54.4268 9.67024C55.228 9.78773 56.0971 9.42522 56.3593 8.6171C56.5885 7.91214 56.2815 7.11405 55.548 6.8719C54.6545 6.57817 53.4669 6.94354 52.5922 7.1599C52.3702 7.21435 52.2751 7.39345 52.2794 7.57113C52.1742 7.71728 52.1411 7.92217 52.2737 8.10414C52.8098 8.84206 53.4799 9.53268 54.4282 9.67167L54.4268 9.67024ZM55.5609 8.36922C55.3606 8.93089 54.6314 8.94092 54.1645 8.74606C53.748 8.57268 53.4237 8.23453 53.1427 7.87919C54.0448 7.65996 55.9501 7.27596 55.5609 8.36922Z" fill="#FFDB6E"/>
<path d="M31.8222 9.29196C32.5385 9.60576 33.3124 9.79489 34.0992 9.7734C34.7766 9.75477 35.5505 9.39083 35.3963 8.5913C35.2565 7.87202 34.4826 7.47656 33.8024 7.44933C32.9823 7.41638 32.2949 7.83906 31.6795 8.33053C31.3999 8.28898 31.165 8.54545 31.178 8.7876C30.9892 9.13005 31.4605 9.57137 31.8222 9.2934V9.29196ZM33.0443 8.42653C33.4118 8.27035 34.4336 8.10414 34.4768 8.70736C34.5013 9.05125 34.1021 8.94808 33.8355 8.93519C33.6164 8.92516 33.4017 8.9008 33.187 8.85925C32.9751 8.81913 32.769 8.76181 32.5673 8.69304C32.7186 8.58987 32.8771 8.49674 33.0458 8.4251L33.0443 8.42653Z" fill="#FFDB6E"/>
<path d="M48.7255 14.913C48.6881 14.9875 48.6751 15.0792 48.7039 15.1852C48.9878 16.2169 49.9491 19.5726 51.6035 18.0008C52.1944 17.4391 52.1555 16.6023 51.7159 15.9618C51.1452 15.1279 50.1263 14.8614 49.3092 14.3485C48.9172 14.1034 48.5353 14.5892 48.7255 14.913ZM50.1451 16.7714C49.9505 16.3401 49.7891 15.8988 49.6508 15.4489C50.4737 15.8458 51.4782 16.3946 51.1885 17.164C51.0689 17.4821 50.7749 17.6196 50.4751 17.3875C50.3209 17.2672 50.2272 16.9505 50.1451 16.7714Z" fill="#FFDB6E"/>
</g>
<defs>
<clipPath id="clip0_0_153">
<rect width="97" height="82" fill="white"/>
</clipPath>
</defs>
</svg>
