<svg width="178" height="93" viewBox="0 0 178 93" fill="none" xmlns="http://www.w3.org/2000/svg">
<g clip-path="url(#clip0_0_170)">
<path d="M74.8516 60.3083C74.5857 56.5332 75.1134 53.0369 76.4198 49.6726C78.1092 45.3196 81.4841 43.7483 85.8809 44.1238C88.7211 44.3709 91.3277 45.3696 93.7704 46.829C96.438 48.4387 98.3817 50.7132 99.577 53.5315C100.982 56.8471 102.233 60.2153 103.484 63.5957C104.33 65.8811 105.105 68.1983 105.784 70.5497C106.352 72.5295 106.605 74.5655 105.917 76.5844C104.804 79.9047 102.406 81.8599 99.1008 82.77C95.7713 83.6827 92.5972 83.185 89.5237 81.7145C87.4868 80.733 85.675 79.4081 84.0821 77.8022C80.2509 73.9388 77.2207 69.5634 75.7153 64.2582C75.3341 62.9139 75.1093 61.5292 74.8516 60.3083ZM79.4432 58.06C81.4437 63.7478 84.5044 68.799 88.7305 73.1537C90.6155 75.0884 92.7195 76.7421 95.1512 77.9681C96.6342 78.721 98.1894 79.2075 99.8645 79.2871C102.831 79.4353 105.361 77.0719 105.313 74.1145C105.3 73.1282 105.197 72.0894 104.906 71.1557C103.806 67.6861 102.682 64.2189 101.438 60.7884C100.548 58.3099 99.5374 55.8559 98.446 53.4593C97.3399 51.0394 95.6151 49.101 93.3154 47.7138C90.9498 46.2837 88.4055 45.2911 85.6459 45.11C84.4281 45.0342 83.1577 45.1734 81.9655 45.4776C79.5445 46.0896 78.2224 47.9373 77.2671 50.1187C75.1852 54.8688 75.1402 59.7364 76.7215 64.565C78.5533 70.1709 81.9442 74.8188 86.4944 78.5857C87.6521 79.5439 89.0128 80.3091 90.365 80.9887C92.9251 82.2636 95.6468 82.5595 98.4481 81.9218C99.9704 81.5847 101.391 80.9738 102.505 79.764C100.095 80.3626 97.7747 80.1253 95.6034 79.0338C94.1473 78.3029 92.6937 77.4729 91.4088 76.478C86.6715 72.8162 83.332 68.0644 81.0307 62.5795C80.4147 61.1105 79.9773 59.5743 79.4555 58.0588L79.4432 58.06Z" fill="#674BA0"/>
<path d="M101.132 76.3958C100.655 75.9497 100.132 75.5329 99.6879 75.0465C96.7284 71.7502 94.5991 67.9884 93.1804 63.7977C91.7604 59.5948 90.3404 55.3919 88.7883 51.2269C88.1626 49.5367 87.2141 47.9528 86.4368 46.3518C87.4747 47.2232 88.279 48.3525 88.8033 49.6455C89.9325 52.421 91.0019 55.2148 92.0602 58.022C92.8534 60.1522 93.6 62.3117 94.3467 64.4712C95.7056 68.4334 98.0318 71.8175 100.58 75.0808C100.849 75.4242 101.106 75.7688 101.375 76.1123L101.13 76.3835L101.132 76.3958Z" fill="#674BA0"/>
<path d="M88.3355 53.4938C90.5034 59.8685 92.132 66.408 95.9091 72.0789C91.6429 66.5803 89.9874 60.0187 88.3355 53.4938Z" fill="#674BA0"/>
<path d="M86.052 70.57C86.3112 70.5688 86.3846 70.5614 86.5325 70.559C87.2717 73.7561 88.2884 76.8884 89.2219 80.0537C89.2769 80.2334 89.3234 80.4509 89.0983 80.6708C87.3016 77.5177 86.505 74.1165 86.0398 70.5712L86.052 70.57Z" fill="#674BA0"/>
<path d="M84.317 70.5087C84.4797 70.2826 84.5787 70.1617 84.7096 69.9881C84.8709 70.2436 85.0763 70.4452 85.1239 70.675C85.6895 73.8647 86.9642 76.8602 87.8476 80.1416C87.1153 79.7333 86.8611 79.1663 86.6863 78.653C86.1327 76.9432 85.4117 75.2872 85.1589 73.498C84.5636 72.6071 85.0028 71.44 84.3182 70.5209L84.317 70.5087Z" fill="#674BA0"/>
<path d="M88.492 73.733C88.6264 73.9664 88.8342 74.1925 88.8843 74.4467C89.4268 76.7871 90.4742 78.9906 91.1474 81.5277C90.5973 81.2124 90.3675 81.0131 90.2037 80.6098C89.6782 79.3046 89.1783 78.0091 88.8081 76.6514C88.554 75.714 88.4747 74.7962 88.4932 73.7452L88.492 73.733Z" fill="#674BA0"/>
<path d="M86.1997 78.8497C85.9661 79.1075 85.7753 79.0525 85.6348 78.8814C85.4221 78.6064 85.2326 78.3168 85.1238 77.9697C84.6949 76.6424 84.1939 75.3348 83.8016 74.0039C83.6513 73.4881 83.6796 72.9052 83.6833 72.3247C83.8924 72.563 84.0867 72.7781 84.1796 73.0898C84.5535 74.3608 84.9629 75.6159 85.3723 76.871C85.602 77.564 85.7828 78.2618 86.1997 78.8497Z" fill="#674BA0"/>
<path d="M90.6616 76.9106C91.7128 78.7805 91.7736 80.7493 92.8517 82.2709C92.656 82.5373 92.4592 82.5446 92.1462 82.5018C91.1231 80.913 90.6355 79.1226 90.6494 76.9118L90.6616 76.9106Z" fill="#674BA0"/>
<path d="M94.5009 83.3281C93.4984 82.9345 93.2882 82.1903 93.0524 81.5596C92.7456 80.7139 92.3362 79.8291 92.5858 78.8661C92.724 78.8893 92.8585 78.8759 92.8743 78.9114C93.3974 80.3156 93.9082 81.721 94.5009 83.3281Z" fill="#674BA0"/>
<path d="M82.8384 72.8905C83.5595 74.423 84.102 76.0228 84.7131 77.8132C83.5113 76.7853 82.7524 74.7505 82.8384 72.8905Z" fill="#674BA0"/>
<path d="M95.9179 83.7914C94.616 82.6254 94.3399 81.3447 94.301 79.9661C94.4453 79.927 94.5175 79.9075 94.674 79.8672C95.043 81.0893 95.6529 82.2504 95.9302 83.7902L95.9179 83.7914Z" fill="#674BA0"/>
<path d="M96.3845 80.1777C96.4933 80.278 96.6754 80.3709 96.6999 80.4918C96.8599 81.2288 96.9233 81.9877 97.235 82.7589C96.3021 82.4447 96.3927 81.621 96.0872 81.0344C95.9344 80.7411 96.0751 80.4185 96.3735 80.1912L96.3845 80.1777Z" fill="#674BA0"/>
<path d="M98.4003 82.5561C98.0237 82.2481 97.8086 82.0721 97.635 81.9413L97.5093 80.6826C97.7 80.4907 97.8333 80.4651 97.9922 80.696C98.3369 81.18 98.3417 81.7226 98.3893 82.5696L98.4003 82.5561Z" fill="#674BA0"/>
<path d="M144.777 30.9229C141.009 30.534 137.659 29.3874 134.571 27.5234C130.574 25.096 129.623 21.5127 130.765 17.2392C131.503 14.4871 132.944 12.0968 134.804 9.94849C136.853 7.59613 139.432 6.09195 142.426 5.39806C145.926 4.59178 149.481 3.95293 153.023 3.3153C155.426 2.89021 157.847 2.52501 160.267 2.27103C162.308 2.06711 164.356 2.17116 166.237 3.193C169.319 4.87242 170.811 7.5746 171.138 10.9733C171.457 14.4098 170.415 17.4515 168.417 20.206C167.094 22.0414 165.47 23.586 163.61 24.8703C159.127 27.9594 154.286 30.1832 148.809 30.7424C147.416 30.8816 146.018 30.8607 144.764 30.9119L144.777 30.9229ZM143.361 26.0161C149.314 25.0389 154.833 22.9203 159.853 19.5184C162.096 17.9983 164.079 16.2081 165.715 14.0452C166.718 12.7107 167.464 11.2785 167.845 9.64824C168.507 6.7556 166.624 3.85785 163.7 3.38465C162.72 3.22325 161.687 3.14128 160.713 3.27563C157.104 3.74704 153.488 4.25635 149.894 4.87442C147.296 5.31904 144.709 5.88587 142.144 6.53703C139.568 7.20163 137.358 8.57018 135.584 10.5865C133.753 12.6578 132.344 14.9955 131.686 17.678C131.396 18.8548 131.315 20.1466 131.399 21.3601C131.587 23.8593 133.168 25.4787 135.151 26.7865C139.465 29.6637 144.259 30.555 149.275 29.8442C155.12 29.0137 160.289 26.4856 164.799 22.6779C165.948 21.6991 166.94 20.5016 167.844 19.2881C169.554 16.9944 170.316 14.3633 170.178 11.5011C170.109 9.94051 169.762 8.44464 168.766 7.12469C168.939 9.60067 168.286 11.8383 166.838 13.7849C165.869 15.0913 164.799 16.3707 163.587 17.4668C159.148 21.4896 153.885 23.9407 148.077 25.2612C146.519 25.6143 144.93 25.773 143.349 26.0173L143.361 26.0161Z" fill="#674BA0"/>
<path d="M165.21 7.87475C164.682 8.27311 164.194 8.70447 163.636 9.05638C159.881 11.3939 155.802 12.8381 151.421 13.4854C147.029 14.1462 142.638 14.8192 138.271 15.6132C136.489 15.9393 134.776 16.5918 133.059 17.0841C134.096 16.2153 135.345 15.6215 136.713 15.3369C139.639 14.7114 142.595 14.1446 145.542 13.6035C147.786 13.1943 150.034 12.8339 152.296 12.4846C156.444 11.8483 160.188 10.1413 163.834 8.19727C164.222 7.9981 164.61 7.79893 164.996 7.58754C165.067 7.6792 165.151 7.78187 165.222 7.87353L165.21 7.87475Z" fill="#674BA0"/>
<path d="M140.406 16.4615C147.059 15.4392 153.792 14.9766 160.041 12.2543C153.882 15.4984 147.125 15.9757 140.406 16.4615Z" fill="#674BA0"/>
<path d="M156.834 21.6959C156.871 21.4454 156.888 21.3696 156.91 21.2193C160.191 21.0522 163.454 20.5905 166.728 20.2266C166.911 20.2083 167.132 20.1985 167.306 20.4527C163.896 21.6696 160.396 21.871 156.822 21.6971L156.834 21.6959Z" fill="#674BA0"/>
<path d="M156.472 23.386C156.279 23.1832 156.169 23.0707 156.03 22.9118C156.302 22.7982 156.545 22.6259 156.779 22.6272C160.015 22.625 163.19 21.9006 166.581 21.599C166.052 22.2442 165.451 22.403 164.915 22.4812C163.137 22.7328 161.377 23.1555 159.566 23.0771C158.584 23.5084 157.519 22.8619 156.484 23.3848L156.472 23.386Z" fill="#674BA0"/>
<path d="M160.39 19.835C160.641 19.7482 160.897 19.5869 161.155 19.5735C163.563 19.4564 165.906 18.8028 168.526 18.5781C168.13 19.0621 167.878 19.26 167.455 19.3516C166.077 19.6497 164.72 19.9087 163.313 20.0369C162.347 20.1333 161.424 20.0404 160.39 19.835Z" fill="#674BA0"/>
<path d="M165.028 22.9884C165.24 23.2634 165.147 23.4454 164.96 23.5505C164.654 23.7045 164.335 23.8474 163.97 23.8963C162.593 24.0832 161.211 24.3446 159.832 24.507C159.294 24.5607 158.727 24.4446 158.159 24.3284C158.427 24.1659 158.672 24.0181 159.001 23.9729C160.319 23.8166 161.623 23.6492 162.938 23.4563C163.657 23.3598 164.379 23.3 165.028 22.9884Z" fill="#674BA0"/>
<path d="M163.889 18.2637C165.917 17.555 167.871 17.8289 169.546 17.0445C169.768 17.2816 169.737 17.4698 169.656 17.7741C167.914 18.5035 166.066 18.6757 163.889 18.2637Z" fill="#674BA0"/>
<path d="M170.884 15.6025C170.322 16.5227 169.551 16.5997 168.896 16.7145C168.011 16.8769 167.072 17.1188 166.152 16.6922C166.2 16.5517 166.212 16.4271 166.249 16.4234C167.728 16.1522 169.197 15.8945 170.883 15.5903L170.884 15.6025Z" fill="#674BA0"/>
<path d="M158.56 25.2511C160.195 24.804 161.862 24.5512 163.735 24.2654C162.513 25.2637 160.367 25.6631 158.56 25.2511Z" fill="#674BA0"/>
<path d="M171.582 14.2986C170.207 15.3739 168.89 15.4191 167.537 15.221C167.522 15.0743 167.515 15.001 167.499 14.8421C168.768 14.6907 170.013 14.2948 171.582 14.2986Z" fill="#674BA0"/>
<path d="M168.113 13.2009C168.228 13.1154 168.347 12.943 168.482 12.9418C169.233 12.9162 169.994 12.9884 170.803 12.8088C170.333 13.6704 169.532 13.4418 168.897 13.6287C168.585 13.7215 168.295 13.5406 168.113 13.2009Z" fill="#674BA0"/>
<path d="M170.797 11.6368C170.434 11.957 170.217 12.1391 170.058 12.2784C169.561 12.2417 169.174 12.2062 168.789 12.1829C168.632 11.9642 168.63 11.8285 168.877 11.7051C169.408 11.4546 169.947 11.5366 170.785 11.6381L170.797 11.6368Z" fill="#674BA0"/>
<path d="M24.4285 15.5277C27.4656 16.1378 30.2384 17.3173 32.5502 19.444C36.6149 23.1729 36.8878 28.5025 34.1898 32.6476C32.7124 34.9181 30.7239 36.6472 28.3566 37.9204C23.1645 40.71 17.6695 41.4563 11.9415 40.1151C9.17217 39.466 6.62306 38.3011 4.55707 36.2857C2.10601 33.8767 0.867952 31.001 1.34545 27.4973C1.76539 24.5301 3.30887 22.179 5.5003 20.2568C10.5117 15.9053 16.453 14.6825 22.8843 15.2746C23.399 15.3589 23.9113 15.4189 24.4285 15.5277ZM29.79 35.8271C31.716 34.4622 33.2605 32.7404 34.2024 30.5481C35.5957 27.3108 35.1952 24.2898 33.0645 21.5032C31.2053 19.0846 28.6538 17.6484 25.7855 16.8733C19.5574 15.2242 13.6235 16.0266 8.14268 19.5115C5.50746 21.1941 3.49571 23.4316 2.58056 26.51C1.71925 29.3855 2.33745 31.9898 4.14906 34.3022C6.05846 36.7282 8.6332 38.1497 11.5541 38.9566C12.7853 39.2903 14.063 39.4713 14.6926 39.5935C20.5908 40.0413 25.4403 38.8905 29.7777 35.8283L29.79 35.8271Z" fill="#674BA0"/>
<path d="M3.56837 27.2507C3.68684 27.9424 4.12214 27.8495 4.44493 27.8667C6.44157 27.9512 8.44188 28.0723 10.4422 28.0701C15.8759 28.0705 21.1692 26.9124 26.521 26.2175C28.6914 25.9391 30.8434 25.4773 33.0625 25.8111C32.3266 25.2428 31.4964 25.0912 30.6038 25.1803C27.1459 25.5503 23.6795 25.8348 20.2363 26.3514C14.9065 27.1429 9.573 27.4039 4.19195 27.1884C4.0061 27.1823 3.81291 27.2262 3.55614 27.2519L3.56837 27.2507Z" fill="#674BA0"/>
<path d="M7.06793 26.1853C12.883 26.6661 18.5272 25.4359 24.1872 24.3646C18.4723 24.886 12.7695 25.4061 7.05452 25.9274C7.06307 26.013 7.07161 26.0985 7.08015 26.1841L7.06793 26.1853Z" fill="#674BA0"/>
<path d="M2.31653 32.7695C5.77533 33.8929 19.4535 34.8351 21.3219 34.0067C14.9823 33.5906 8.65613 33.1856 2.31653 32.7695Z" fill="#674BA0"/>
<path d="M20.3839 35.1248C14.9637 34.7651 9.73064 34.4237 4.48533 34.0835C4.45841 34.1849 4.44372 34.2851 4.41802 34.3988C4.90096 34.5357 5.379 34.7471 5.86562 34.7973C9.91266 35.2571 13.9695 35.6913 18.0497 35.4937C18.7258 35.4632 19.3959 35.495 20.0732 35.4768C20.1221 35.4719 20.1735 35.368 20.3839 35.1248Z" fill="#674BA0"/>
<path d="M17.7621 36.9419C13.8226 36.57 9.87213 36.2116 5.63312 35.8079C6.03044 36.0768 6.18325 36.2467 6.36053 36.2907C9.61032 37.0524 12.8957 37.3044 16.2263 37.268C16.7325 37.2669 17.2252 37.2547 17.7314 37.2535C17.7461 37.1533 17.7474 37.0421 17.7621 36.9419Z" fill="#674BA0"/>
<path d="M2.70183 31.8053C5.70839 32.1099 8.7088 32.6002 11.757 32.4563C11.7607 32.3695 11.7656 32.2949 11.7815 32.207C8.75294 31.9293 5.73538 31.6382 2.70681 31.3605C2.70922 31.5084 2.69942 31.6575 2.70061 31.7931L2.70183 31.8053Z" fill="#674BA0"/>
<path d="M9.07351 37.4886C11.0064 38.4188 13.0459 38.3139 15.0645 38.4949C15.0768 38.3703 15.1013 38.2444 15.1123 38.1075C14.1256 37.9962 13.1255 37.8739 12.1278 37.7761C11.1044 37.6684 10.0834 37.5853 9.06128 37.4898L9.07351 37.4886Z" fill="#674BA0"/>
<path d="M6.61341 31.0321C4.99337 30.8853 3.38555 30.7373 1.76428 30.5783C3.29006 31.3887 4.91381 31.3252 6.52531 31.3865C6.54979 31.2606 6.57549 31.147 6.59997 31.0211L6.61341 31.0321Z" fill="#674BA0"/>
<path d="M1.65187 29.9477C2.54931 30.0308 3.45899 30.1128 4.35643 30.196C4.37234 30.108 4.37602 30.0212 4.39194 29.9332C3.51165 29.6509 2.58362 29.6324 1.66048 29.6629C1.6568 29.7497 1.65433 29.8487 1.63842 29.9367L1.65187 29.9477Z" fill="#674BA0"/>
<path d="M29.5047 17.8843C26.0397 17.5638 22.5868 17.2421 19.1218 16.9216C22.5231 17.8409 25.987 18.1492 29.4704 18.1593C29.4864 18.0713 29.4888 17.9723 29.5047 17.8843Z" fill="#674BA0"/>
<path d="M18.899 18.2769C22.6428 18.9152 29.3504 19.4302 30.3005 19.1749C29.1622 18.6591 20.3467 17.9349 18.899 18.2769Z" fill="#674BA0"/>
<path d="M17.182 19.8802C19.2678 20.4865 21.3941 20.5087 23.5962 20.4245C22.892 19.8037 19.5504 19.4832 17.182 19.8802Z" fill="#674BA0"/>
<path d="M18.8426 18.9491C19.7094 19.4673 23.5999 19.9675 25.3851 19.7892C24.8826 19.3333 21.2171 18.8601 18.8426 18.9491Z" fill="#674BA0"/>
</g>
<defs>
<clipPath id="clip0_0_170">
<rect width="171" height="76" fill="white" transform="translate(0 16.9921) rotate(-5.70284)"/>
</clipPath>
</defs>
</svg>
