<svg width="166" height="164" viewBox="0 0 166 164" fill="none" xmlns="http://www.w3.org/2000/svg">
<g clip-path="url(#clip0_0_139)">
<path d="M93.7008 120.632C93.681 120.637 93.6613 120.64 93.6385 120.64C93.619 120.642 93.5998 120.64 93.5825 120.637C92.3042 120.573 92.0072 119.221 92.1225 118.139C92.2675 116.781 92.9885 115.27 94.4111 114.886C95.9618 114.467 97.2155 115.527 97.0176 117.121C96.8112 118.777 95.4264 120.456 93.7001 120.631L93.7008 120.632ZM96.5328 117.433C96.7028 116.712 96.6622 115.829 95.947 115.416C95.3809 115.089 94.6192 115.177 94.0576 115.474C93.1536 115.952 92.7015 117.054 92.5599 118.013C92.4372 118.847 92.5136 120.198 93.6246 120.22C95.0497 120.106 96.2194 118.76 96.5318 117.434L96.5328 117.433Z" fill="#674BA0"/>
<path d="M87.4321 124.235C85.184 121.964 87.2046 118.775 88.4975 116.589C88.6011 116.413 88.7056 116.238 88.8092 116.062C88.7456 115.981 88.6801 115.902 88.6073 115.827C88.4218 115.631 88.7136 115.324 88.9007 115.521C88.9487 115.571 88.9931 115.623 89.0383 115.675C89.8018 114.384 90.5663 113.093 91.3299 111.802C91.7806 111.042 92.2637 110.291 92.6752 109.509C92.9075 109.068 93.0973 108.594 93.0255 108.089C92.9286 107.411 92.1334 106.755 91.5648 107.47C91.3961 107.683 91.0932 107.391 91.2608 107.179C92.0421 106.195 93.3211 107.006 93.4534 108.044C93.5532 108.831 93.145 109.552 92.7614 110.206C92.2227 111.127 91.6757 112.041 91.1329 112.959C90.5273 113.981 89.9109 114.999 89.3027 116.022C89.5491 116.382 89.736 116.777 89.8545 117.207C89.9266 117.468 89.5221 117.59 89.4501 117.328C89.361 117.006 89.232 116.705 89.0631 116.427C88.6751 117.082 88.2931 117.739 87.9219 118.403C86.9896 120.065 86.1774 122.364 87.7264 123.929C87.9167 124.12 87.6241 124.427 87.433 124.234L87.4321 124.235Z" fill="#674BA0"/>
<path d="M84.7205 114.236C84.9511 114.68 85.1827 115.123 85.4133 115.567C86.2306 114.471 87.0651 113.388 87.7999 112.235C88.2652 111.506 88.6908 110.75 89.0374 109.956C89.2237 109.528 89.4 109.086 89.5165 108.634C89.646 108.128 89.6029 106.991 88.7291 107.327C88.4746 107.425 88.3572 107.02 88.6098 106.923C89.0577 106.751 89.5164 106.92 89.7937 107.308C90.1518 107.808 90.0171 108.461 89.8459 109.008C89.2657 110.853 88.1863 112.5 87.0576 114.054C86.5898 114.699 86.1035 115.333 85.6263 115.974C85.7916 116.291 85.9568 116.608 86.1211 116.926C86.2454 117.164 85.886 117.386 85.7601 117.146C85.6224 116.881 85.4847 116.617 85.3471 116.353C84.7268 117.196 84.1296 118.056 83.6129 118.967C82.7879 120.424 82.1776 122.139 82.7894 123.779C82.8842 124.032 82.479 124.153 82.385 123.9C81.3875 121.225 83.2986 118.478 84.8 116.402C84.9103 116.249 85.0223 116.096 85.135 115.945C84.8769 115.448 84.6177 114.952 84.3603 114.457C84.236 114.218 84.5955 113.996 84.7213 114.237L84.7205 114.236Z" fill="#674BA0"/>
<path d="M84.2334 110.94C83.5103 112.24 82.0897 114.251 80.3211 113.449C78.7926 112.757 78.5618 110.219 78.7328 108.789C78.7653 108.52 79.1755 108.617 79.1433 108.883C78.9999 110.076 79.19 111.387 79.831 112.42C80.7901 113.966 82.478 112.829 83.2418 111.731C83.7962 110.934 85.0479 109.091 83.7369 108.405C82.947 107.991 82.5052 108.974 82.3412 109.566C82.1593 110.227 82.1359 110.903 82.5271 111.489C82.6773 111.715 82.3163 111.935 82.1661 111.71C81.4946 110.703 81.7143 108.235 83.1523 107.912C83.7638 107.775 84.3209 108.206 84.5671 108.737C84.9074 109.472 84.6021 110.275 84.2327 110.939L84.2334 110.94Z" fill="#674BA0"/>
<path d="M96.8882 110.388C96.6175 110.416 96.6072 109.994 96.8752 109.967C98.3086 109.823 99.5798 109.059 100.379 107.857C100.528 107.632 100.9 107.83 100.75 108.056C99.8622 109.392 98.4823 110.227 96.8874 110.387L96.8882 110.388Z" fill="#674BA0"/>
<path d="M98.8767 113.92C99.9837 113.778 101.001 113.312 101.835 112.568C102.037 112.389 102.343 112.677 102.139 112.859C101.216 113.682 100.114 114.183 98.8897 114.341C98.62 114.376 98.6097 113.955 98.8767 113.92Z" fill="#674BA0"/>
<path d="M80.3193 118.505C78.6567 119.905 77.5477 121.782 77.1331 123.911C77.0806 124.178 76.6703 124.083 76.7226 123.818C77.1498 121.62 78.3001 119.659 80.0154 118.214C80.2217 118.041 80.5276 118.329 80.3193 118.505Z" fill="#674BA0"/>
<path d="M79.0564 117.104C77.4757 117.869 76.2302 119.087 75.4379 120.654C75.3156 120.897 74.9451 120.696 75.0682 120.454C75.8899 118.828 77.1974 117.539 78.8398 116.745C79.0829 116.628 79.3032 116.986 79.0581 117.105L79.0564 117.104Z" fill="#674BA0"/>
<path d="M85.8914 126.54C87.8373 127.708 90.2785 127.085 91.4199 125.107C91.5555 124.872 91.9261 125.071 91.7905 125.306C90.5377 127.478 87.834 128.199 85.6894 126.91C85.458 126.772 85.6584 126.4 85.8906 126.539L85.8914 126.54Z" fill="#674BA0"/>
<path d="M92.544 128.119C90.9483 130.532 88.06 131.831 85.2033 131.418C84.9345 131.378 85.0329 130.968 85.2992 131.007C87.9573 131.391 90.6876 130.165 92.1733 127.92C92.322 127.695 92.6946 127.892 92.544 128.119Z" fill="#674BA0"/>
<path d="M87.8078 104.179C89.7156 102.864 92.2192 102.725 94.2523 103.808C94.4909 103.935 94.2896 104.307 94.0503 104.178C92.1394 103.161 89.8138 103.304 88.0254 104.537C87.8016 104.691 87.5832 104.332 87.807 104.178L87.8078 104.179Z" fill="#674BA0"/>
<path d="M95.2017 102.067C93.0591 100.822 90.365 100.902 88.2865 102.274C88.0596 102.424 87.8412 102.065 88.0682 101.915C90.2647 100.466 93.1394 100.381 95.403 101.696C95.6372 101.832 95.4359 102.203 95.2017 102.067Z" fill="#674BA0"/>
<path d="M93.1107 61.5311C95.4683 61.4126 97.8252 61.7844 100.085 62.4251L110.302 31.5036C109.659 30.8904 109.646 29.9007 110.141 29.1917C109.814 28.7189 109.822 28.0343 110.239 27.588L92.8584 2.68127L96.306 0.271334L113.728 25.238C114.823 25.2007 115.639 26.2072 115.52 27.2071C115.913 27.336 116.251 27.6111 116.429 28.0425C116.644 28.5633 116.511 29.1463 116.174 29.5663C116.508 30.0221 116.637 30.6266 116.46 31.1882C116.143 32.1986 115.11 32.4962 114.253 32.9043L104.015 63.8898C104.029 63.8945 104.042 63.8975 104.057 63.9032C112.248 67.4726 122.452 74.8636 120.885 85.1084C120.678 86.466 120.244 87.799 119.616 89.0262L121.428 90.0024L118.149 96.0332L116.52 95.155L80.0622 155.139L48.3378 138.043L77.756 74.2663L76.1464 73.3995L79.426 67.3686L81.0999 68.2702C83.893 64.2918 88.2048 61.7793 93.109 61.531L93.1107 61.5311ZM96.4922 62.9612C96.4712 62.9787 96.451 62.9971 96.4282 63.0144C95.1911 63.9106 95.232 65.6013 95.9364 66.8184C96.4109 67.6407 97.1609 68.2722 98.0048 68.7197L99.687 63.6296C98.6395 63.3372 97.5702 63.1078 96.493 62.9621L96.4922 62.9612ZM114.916 31.1996C115.255 30.9636 115.335 30.6358 115.179 30.3786C114.539 30.7717 113.828 31.0776 113.095 31.2427L114.155 31.5873C114.42 31.4772 114.685 31.3611 114.916 31.1996ZM113.214 32.465L111.414 31.88C111.394 31.8888 111.374 31.894 111.353 31.9009L99.2074 68.6551L101.057 69.256L113.214 32.465ZM94.4237 2.95549L111.154 26.9303L112.75 25.8146C112.75 25.8146 112.75 25.8094 112.751 25.8068L96.0238 1.83577L94.4246 2.9547L94.4237 2.95549ZM113.706 26.5136L111.652 27.9506C111.62 28.1596 111.486 28.3489 111.221 28.4264C111.174 28.4398 111.034 28.4626 111.224 28.454C111.377 28.4473 111.502 28.4865 111.6 28.5541C112.439 28.3597 113.211 27.9423 113.843 27.3491C113.955 27.243 114.079 27.1891 114.202 27.1753C114.359 26.8246 114.131 26.467 113.706 26.5154L113.706 26.5136ZM114.79 28.4075C114.684 28.4623 114.574 28.4815 114.466 28.4746C113.524 29.2635 112.416 29.7407 111.184 29.902C111.162 29.9044 111.141 29.906 111.121 29.9068C111.1 29.9367 111.082 29.9658 111.07 29.9972C112.256 30.2853 113.45 29.9432 114.496 29.3137C114.556 29.1143 114.696 28.9449 114.909 28.9075C115.475 28.8057 115.23 28.1777 114.789 28.4066L114.79 28.4075ZM102.173 69.4595C102.598 69.3856 103.011 69.2581 103.399 69.064C104.7 68.4098 105.486 66.9998 104.684 65.6616C104.662 65.6254 104.645 65.5879 104.632 65.5525C104.295 65.3943 103.957 65.2404 103.617 65.0899L102.173 69.4595ZM119.632 81.1575C118.968 77.0067 116.229 73.5582 113.103 70.9137C111.015 69.1486 108.683 67.629 106.243 66.3536C106.413 67.6849 105.752 68.9987 104.553 69.8412C103.02 70.9195 100.916 71.0007 99.1647 70.5228C97.2535 70.0017 95.4007 68.8058 94.5867 66.9428C93.9752 65.5425 94.0534 63.9872 94.8984 62.8118C92.987 62.7116 91.0689 62.906 89.2183 63.5308C86.9992 64.2793 85.0233 65.617 83.4443 67.3404C82.9631 67.8662 82.5769 68.353 82.2143 68.87L118.505 88.4267C119.631 86.2122 120.029 83.6292 119.633 81.1584L119.632 81.1575ZM96.12 121.656C95.7056 122.945 96.7891 123.91 97.842 123.726L100.279 119.716C100.033 119.288 99.5063 119.058 98.9455 119.244C98.6869 119.329 98.5676 118.926 98.8262 118.841C99.5013 118.618 100.143 118.856 100.516 119.326L104.776 112.316L104.61 112.322C104.42 106.667 101.953 102.152 97.8405 99.9368C90.5559 96.0111 80.51 100.392 75.4476 109.702C70.3842 119.013 72.1898 129.78 79.4744 133.706C83.0875 135.653 87.164 135.409 91.9367 132.96L92.0702 133.221L97.5696 124.172C96.3643 124.154 95.2411 123.014 95.7078 121.563C95.791 121.306 96.2016 121.397 96.1183 121.656L96.12 121.656ZM49.8004 137.551L79.6594 153.642L91.2814 134.518C86.6454 136.61 82.5961 136.667 78.9362 134.695C71.107 130.476 69.0995 119.025 74.4597 109.169C79.8198 99.3127 90.5504 94.7278 98.3789 98.946C102.504 101.169 105.103 105.477 105.641 110.891L115.529 94.6215L78.7456 74.7997L49.8004 137.551ZM77.6744 72.942L78.2299 73.2408L117.104 94.1902L117.698 94.5101L119.902 90.4583L79.8784 68.8902L77.6744 72.942Z" fill="#674BA0"/>
</g>
<defs>
<clipPath id="clip0_0_139">
<rect width="109" height="125" fill="white" transform="matrix(-0.63968 -0.768641 -0.768641 0.63968 165.805 83.7819)"/>
</clipPath>
</defs>
</svg>
