<svg width="107" height="136" viewBox="0 0 107 136" fill="none" xmlns="http://www.w3.org/2000/svg">
<g clip-path="url(#clip0_0_300)">
<path d="M73.7454 55.2079C73.1429 54.2311 71.1033 53.6287 70.1178 54.2039C69.0956 54.2847 68.393 57.1472 68.1382 58.0554C67.3413 61.0232 67.1757 64.1205 67.5185 67.169C67.886 71.5318 68.9322 75.8454 70.6197 79.8868C71.2858 81.3849 72.0316 82.9253 73.2815 84.0252C74.4975 85.0108 76.1589 85.6864 77.7095 85.156C79.6348 84.6297 80.7051 82.1426 80.5927 80.2775C80.5354 78.8938 79.9027 77.63 79.738 76.2685C79.6906 75.7944 79.7123 75.3155 79.7882 74.846C79.8877 74.2616 80.0735 73.6625 79.8419 73.0843C79.3504 72.1096 78.5371 71.2895 78.2866 70.1944C77.9715 69.2231 78.5445 68.2737 78.4135 67.3047C78.2048 66.2897 77.0678 65.7724 77.0452 64.6595C76.9156 63.7725 77.3646 62.8534 77.0214 61.9964C76.5523 61.1265 75.3703 60.959 74.808 60.1208C74.3881 59.5851 74.222 58.9018 74.1502 58.2372C74.0228 57.2306 74.3076 56.1136 73.7465 55.2074L73.7454 55.2079ZM72.9857 56.3326C73.0387 57.9719 72.9333 59.8359 74.1923 61.0897C74.6738 61.6023 75.2957 61.932 75.8806 62.3045C76.1669 62.5048 76.0369 62.9058 76.0217 63.2011C75.9212 63.9692 75.8569 64.7691 76.1059 65.5179C76.2147 65.8587 76.3805 66.1812 76.5898 66.4715C76.8972 66.9149 77.4799 67.294 77.331 67.9067C77.2578 68.3254 77.1432 68.7326 77.112 69.1583C76.9986 70.3982 77.5485 71.577 78.226 72.5806C78.5019 73.0242 78.9941 73.4517 78.8361 74.0234C78.5692 75.1854 78.533 76.3918 78.8598 77.5474C79.1006 78.4173 79.4012 79.2773 79.4836 80.1832C79.6499 81.4242 79.0087 83.2443 77.9228 83.9292C75.7899 85.0748 73.5076 83.1765 72.545 81.3192C70.3865 77.2145 69.2367 72.6017 68.7014 68.0137C68.4317 65.6044 68.2853 63.0535 68.7073 60.6242C68.8885 59.5261 69.1322 58.4291 69.4475 57.366C69.7057 56.5829 69.9399 55.7508 70.4662 55.0997C71.3965 54.9633 72.8716 55.1845 72.9857 56.3326Z" fill="#674BA0"/>
<path d="M97.7253 91.4773C96.4065 89.4484 94.796 87.6556 93.7252 85.4614C92.5473 82.9862 91.5968 80.2842 90.4834 77.761C89.2954 75.0539 87.9741 72.4091 86.7505 69.7166C83.5327 62.8363 80.5125 55.8003 76.2408 49.4874C71.47 42.581 65.0998 36.806 57.8591 32.5817C54.6441 30.6488 51.1902 29.1757 47.7541 27.691C46.3967 27.0914 45.0378 26.4607 43.8521 25.4837C43.2983 25.023 42.8564 24.5352 42.3981 23.9575C42.3915 23.9525 42.3843 23.9491 42.3777 23.944C42.3693 23.8986 42.3525 23.8531 42.3297 23.8091C41.7999 22.4097 41.1242 21.072 40.4673 19.7278C39.9319 18.7195 39.5424 17.5931 38.7558 16.7461C38.0608 16.0555 36.9788 15.6987 36.0436 16.0786C34.9834 14.7111 34.1504 13.1499 33.3059 11.6385C32.5315 10.0762 31.2318 10.9345 30.0448 11.4209C27.8653 12.4515 25.676 13.4621 23.546 14.5911C22.5675 15.0569 21.4629 15.7344 21.7214 16.9923C22.1247 18.8336 23.3371 20.3802 23.8152 22.2001C23.8374 22.451 23.4678 22.5586 23.3019 22.7003C22.8059 22.9743 22.3278 23.4283 22.3651 24.0423C22.4007 24.6075 22.6793 25.1187 22.8811 25.6385C23.6927 27.7721 24.5985 29.8651 25.5565 31.9381C25.5663 31.9581 25.5772 31.9748 25.587 31.9921C25.5348 32.0906 25.4902 32.1964 25.4595 32.3023C25.422 32.3551 25.3916 32.4167 25.3695 32.4868C24.2609 36.6095 23.8781 40.8777 23.4811 45.1169C23.0801 49.044 22.8453 52.9932 22.987 56.9417C23.1847 63.2 23.8755 69.4654 25.2917 75.5718C25.7602 77.4226 26.3311 79.2523 26.9964 81.0414C28.4841 84.6516 30.3902 88.0877 32.5031 91.3676C36.116 97.1595 39.2876 103.163 42.2517 109.319C43.4421 111.814 44.7324 114.266 45.7936 116.82C46.8414 119.319 47.6745 121.913 48.9892 124.291C52.6332 131.551 60.1822 131.045 66.7784 128.564C71.267 127.055 75.631 125.187 79.8855 123.115C82.4436 121.891 84.9353 120.543 87.4543 119.242C90.8892 117.417 94.3647 115.571 97.3473 113.046C98.9479 111.647 100.461 110.039 101.176 107.997C102.537 104.203 101.728 99.9819 100.301 96.3202C99.6327 94.6124 98.7438 93.0015 97.7302 91.4763L97.7253 91.4773ZM42.2718 23.7272C42.2515 23.7027 42.2285 23.6781 42.2005 23.6546C42.2274 23.6759 42.2505 23.7005 42.2718 23.7272ZM24.6619 22.9365C25.3862 22.0013 24.0708 20.0271 23.6906 19.0436C23.3501 18.1949 22.6975 17.3238 22.8006 16.3781C22.9994 16.011 23.4495 15.8682 23.7879 15.6574C24.1128 15.4807 24.4415 15.3091 24.7696 15.1391C26.1177 14.439 27.5288 13.7949 28.9004 13.1316C29.9358 12.6614 30.9458 12.0659 32.0591 11.8084C32.4864 12.2579 32.7006 12.8708 33.0157 13.3973C33.5236 14.3074 34.0839 15.1864 34.6602 16.0535C34.7612 16.2039 34.8768 16.3898 35.0118 16.5676C34.8603 16.6375 34.7083 16.709 34.5578 16.7839C32.8221 17.6363 31.1255 18.5659 29.3773 19.3899C28.8276 19.6778 28.2298 19.9038 27.7155 20.2473C27.3927 20.5153 27.5433 21.0629 27.9466 21.1564C28.1446 21.2098 28.332 21.143 28.4894 21.0317C28.9136 20.8051 29.3488 20.5952 29.7828 20.3858C32.0437 19.3361 34.1944 18.0524 36.4976 17.0949C36.5425 17.0771 36.5831 17.0531 36.6182 17.0236C38.0598 16.8893 38.5955 18.447 39.2207 19.6758C39.839 20.9411 40.4801 22.1883 41.0268 23.49C41.111 23.6568 41.1647 23.8426 41.2312 24.0209C40.2288 24.6347 39.1654 25.073 38.0892 25.5893C35.2667 26.9025 32.4311 28.1917 29.6498 29.5949C28.9043 29.9633 28.1528 30.3223 27.4089 30.6941C27.0902 30.8636 26.7434 31.0152 26.424 31.2029C25.622 29.4407 24.8156 27.6779 24.1484 25.8594C23.13 23.1479 23.1178 24.4568 24.663 22.9359L24.6619 22.9365ZM100.623 106.069C100.099 109.282 97.6186 111.632 95.1067 113.471C92.0678 115.658 88.7215 117.385 85.3663 119.131C78.1919 122.911 70.8313 126.423 62.9867 128.603C59.892 129.421 56.2839 129.504 53.4542 127.769C49.9976 125.57 48.8144 121.316 47.3259 117.721C46.6315 115.926 45.8383 114.168 44.9779 112.446C41.8718 105.958 38.6647 99.5075 34.98 93.3237C32.295 88.9295 29.4225 84.6132 27.6725 79.729C25.9124 74.7988 25.0931 69.548 24.553 64.3536C23.4705 54.9424 24.1943 45.4253 25.6423 36.0874C25.8222 35.0905 26.0648 34.0505 26.3274 33.0062C26.3993 32.9394 26.4531 32.8525 26.4811 32.7493C26.5141 32.499 26.6732 32.3152 26.8882 32.195C29.6617 30.7281 32.5094 29.3876 35.3543 28.0442C37.0553 27.2446 38.7737 26.4834 40.4622 25.6611C40.879 25.456 41.2877 25.2425 41.6915 25.0135C41.7237 24.9922 41.7571 24.9732 41.7915 24.9536C43.3293 26.9072 45.6279 27.9891 47.8646 28.9386C50.1226 29.9205 52.3042 30.8447 54.5309 31.9961C61.8483 35.7808 68.3733 41.0958 73.5035 47.598C76.9251 52.0275 79.5566 56.9258 81.9152 62.0056C83.7268 65.6848 85.4131 69.4225 87.1403 73.1429C88.8285 76.5863 90.3258 80.1147 91.7443 83.6761C92.3362 85.1237 92.9801 86.5596 93.8429 87.8693C94.6821 89.1616 95.6469 90.3649 96.5144 91.6365C99.3729 95.7889 101.377 100.948 100.622 106.067L100.623 106.069Z" fill="#674BA0"/>
<path d="M41.3604 49.4933C49.0692 46.8351 60.6879 47.7397 68.431 50.2172C68.431 50.2172 68.4266 50.2139 68.4227 50.2116C68.4183 50.2082 68.4139 50.2049 68.4101 50.2026C68.4992 50.2527 68.594 50.2808 68.7019 50.2763C69.1762 50.2732 69.3575 49.6143 68.9945 49.3358C68.8128 49.1946 68.5773 49.1265 68.3601 49.0563C65.8913 48.2932 63.3502 47.7843 60.7951 47.4159C54.4911 46.5408 47.0611 46.3757 40.9967 48.4591C40.3207 48.7053 40.7258 49.6947 41.3615 49.4928L41.3604 49.4933Z" fill="#674BA0"/>
<path d="M37.9926 51.1033C38.3623 50.8468 38.7425 50.6032 39.133 50.3807C39.4974 50.2343 39.7838 49.9621 39.5917 49.5464C39.2646 48.9474 38.6541 49.3614 38.2373 49.6312C37.8117 49.9452 36.8406 50.2544 37.2456 50.9339C37.4039 51.1706 37.754 51.2708 37.9937 51.1028L37.9926 51.1033Z" fill="#674BA0"/>
<path d="M61.5284 56.9206C61.6283 56.5481 61.9682 56.0983 61.6733 55.7424C61.8069 53.68 60.0364 52.7023 58.2544 52.368C55.5197 51.7389 52.6843 51.8325 49.8962 51.9526C46.1028 52.2582 42.3923 53.3331 38.819 54.6014C35.7244 55.5999 33.7048 58.0384 33.189 61.2352C32.7233 63.5495 32.6804 65.9215 32.7588 68.2742C32.8797 72.3885 33.2913 76.5149 34.3292 80.5075C36.4816 88.1177 40.7425 94.8614 44.5586 101.714C45.6019 103.691 46.5504 105.719 47.3491 107.81C47.7426 108.849 48.0891 109.904 48.4644 110.95C48.8493 111.966 49.1854 113.073 49.997 113.839C53.5723 117.345 63.4528 113.984 67.4786 112.158C70.3539 110.753 76.9316 107.595 75.9699 103.674C75.2073 101.77 73.1918 100.871 71.7755 99.5233C68.961 97.0283 66.5161 93.9699 64.9709 90.4842C63.5957 87.425 62.3826 84.2784 61.6404 81.0008C60.606 76.0245 60.0678 70.9242 60.2293 65.84C60.2579 63.3207 60.5424 60.8127 61.0884 58.3532C61.2064 57.8685 61.3569 57.3914 61.5278 56.9222L61.5284 56.9206ZM59.1235 68.6681C59.1793 72.6351 59.6813 76.5948 60.4121 80.4909C61.195 84.305 62.5917 87.9625 64.2289 91.4872C65.8348 94.9116 68.2852 97.9054 71.1097 100.398C72.3433 101.583 74.0465 102.355 74.8818 103.904C75.5869 106.006 72.483 108.108 70.9722 109.089C67.2007 111.432 62.9855 113.036 58.6263 113.886C56.4702 114.247 53.9261 114.678 51.8438 113.771C50.0744 113.049 49.6895 111.051 49.1008 109.433C48.4311 107.446 47.6423 105.497 46.7381 103.604C45.7283 101.445 44.5425 99.376 43.3373 97.3205C41.4947 94.1523 39.7384 90.9267 38.1763 87.6091C37.1466 85.3246 36.202 82.9723 35.4828 80.5663C34.3398 76.3979 33.9438 72.0641 33.8279 67.7546C33.8081 64.4945 33.73 59.953 36.1037 57.4653C37.2304 56.2109 38.8965 55.6832 40.4433 55.1478C42.6336 54.4066 44.8783 53.8359 47.1446 53.3771C49.0456 52.9867 50.9911 52.9492 52.933 52.9464C54.2968 52.9342 55.665 52.9763 57.0089 53.2273C58.4345 53.4823 60.6659 53.8244 60.5892 55.6965C60.587 55.8242 60.6257 55.9569 60.7044 56.0561C59.2082 60.0667 59.1087 64.4332 59.1213 68.6692L59.1235 68.6681Z" fill="#674BA0"/>
</g>
<defs>
<clipPath id="clip0_0_300">
<rect width="59.3336" height="122.285" fill="white" transform="translate(0 26.0504) rotate(-26.0432)"/>
</clipPath>
</defs>
</svg>
