<svg width="102" height="117" viewBox="0 0 102 117" fill="none" xmlns="http://www.w3.org/2000/svg">
<g opacity="0.2" clip-path="url(#clip0_0_214)">
<path d="M7.70315 40.229C7.33101 39.5217 7.21521 38.6264 7.50335 37.49C7.50335 37.49 14.4712 38.6502 14.8205 34.0367C14.8205 34.0367 14.3463 28.3935 12.6666 24.7739C12.6666 24.7739 13.2707 21.0562 24.323 22.7932C24.323 22.7932 31.6224 24.0404 35.0087 30.4768C35.3859 31.1937 35.7143 31.9731 35.9795 32.8265C35.9795 32.8265 46.5303 31.6236 52.237 42.4703C52.6125 43.184 52.9647 43.9467 53.294 44.7665C53.294 44.7665 63.7393 45.0084 68.0955 53.2883C68.7421 54.5173 69.2517 55.9206 69.578 57.5265C69.578 57.5265 80.0276 57.7376 86.1939 69.458C86.987 70.9655 87.7081 72.662 88.3303 74.5741C88.3303 74.5741 94.2918 78.0823 96.3158 81.9293C96.9792 83.1904 97.2198 84.4859 96.6893 85.7049C96.6893 85.7049 87.3478 85.7526 83.4767 95.3369C83.4767 95.3369 75.4415 95.7722 71.412 88.1133C70.3983 86.1865 69.6373 83.7468 69.3218 80.6558C69.3218 80.6558 69.2984 80.5415 69.2109 80.3751C68.901 79.7862 67.7713 78.5702 63.9338 79.8209C63.9338 79.8209 57.4158 80.9903 54.8496 76.1127C54.3074 75.0821 53.9406 73.7795 53.8511 72.1347L53.1197 67.7956C53.1197 67.7956 53.1168 67.5029 52.9383 67.1636C52.5898 66.5011 51.5747 65.6661 48.6148 66.5205C48.6148 66.5205 41.5133 68.9246 38.6491 63.4804C37.8122 61.8897 37.3379 59.6301 37.5038 56.4453C37.5038 56.4453 37.602 55.8093 37.2703 55.1788C36.8325 54.3466 35.6399 53.5234 32.4581 54.2044C32.4581 54.2044 24.8902 57.0336 21.5848 50.7509C20.8388 49.333 20.3094 47.4498 20.1359 44.9625C20.1359 44.9625 20.1486 44.49 19.8725 43.9651C19.4195 43.1041 18.1843 42.099 14.8243 42.837C14.8243 42.837 9.19842 43.0711 7.70315 40.229ZM6.33123 40.9508C8.22895 44.5579 14.214 44.4167 14.8892 44.3884C14.9813 44.3849 15.0683 44.3718 15.1568 44.3538C16.9109 43.9704 18.1907 44.098 18.5006 44.6869C18.5578 44.7957 18.5762 44.9004 18.5836 44.9456C18.5799 45.0007 18.5829 44.9909 18.591 45.0684C18.7704 47.6057 19.3152 49.7587 20.2161 51.471C21.841 54.5595 24.6056 56.2598 28.2132 56.3804C30.4749 56.4573 32.3815 55.867 32.8807 55.6983C34.9539 55.2696 35.7566 55.6156 35.9048 55.8972C35.9654 56.0124 35.9748 56.1546 35.973 56.2209C35.9597 56.281 35.9646 56.2825 35.9629 56.357C35.796 59.5709 36.2394 62.2064 37.285 64.1939C40.0281 69.4077 46.1814 68.9654 49.0839 67.9941C50.9159 67.4716 51.5288 67.7907 51.5743 67.8771C51.5777 67.8835 51.581 67.8899 51.5827 67.8931C51.5854 67.9448 51.5913 67.9949 51.6004 68.0432L52.3171 72.3002C52.4213 74.0271 52.817 75.5475 53.4888 76.8245C56.5484 82.6399 63.9087 81.3952 64.2211 81.3371C64.292 81.3243 64.3611 81.3083 64.4302 81.2843C66.7262 80.534 67.6189 80.8571 67.8184 81.0423C68.1458 84.0084 68.8976 86.6246 70.0544 88.8234C74.4804 97.2749 83.1927 96.9003 83.5625 96.8815C84.1616 96.8482 84.6904 96.4719 84.9164 95.9158C88.3555 87.3964 96.6152 87.2559 96.7009 87.2557C97.3151 87.2513 97.8668 86.8875 98.1137 86.3245C98.5841 85.2474 98.8898 83.4847 97.6926 81.2091C95.8302 77.6693 91.1828 74.5322 89.6264 73.553C89.0408 71.8424 88.352 70.2228 87.5707 68.7378C82.248 58.6208 73.9543 56.5236 70.8364 56.0921C70.5014 54.8422 70.0465 53.6594 69.4723 52.568C65.5303 45.0755 57.2655 43.5842 54.3574 43.2876C54.1231 42.757 53.8731 42.2429 53.6137 41.75C50.4194 35.6785 45.7751 33.1528 42.4373 32.1015C40.2111 31.4012 38.2646 31.2483 37.0665 31.2371C36.8634 30.7269 36.6364 30.2334 36.3855 29.7565C32.686 22.7249 24.9177 21.3238 24.5868 21.269C24.5787 21.2692 24.5738 21.2677 24.5657 21.2679C12.5971 19.3877 11.2818 23.6554 11.1418 24.53C11.0917 24.8383 11.1338 25.1513 11.2658 25.4332C12.6729 28.4647 13.1847 33.2014 13.2687 34.044C13.2073 34.5871 12.9926 34.9861 12.6077 35.2867C11.3338 36.2879 8.61407 36.1087 7.76399 35.9675C6.96743 35.835 6.20516 36.3341 6.00818 37.116C5.64233 38.5549 5.75518 39.8482 6.33948 40.9587L6.33123 40.9508Z" fill="#FFDB6E"/>
<path d="M96.5252 81.5048C97.9228 84.1613 97.0668 85.8171 97.0295 85.8858C96.9625 86.0069 96.8396 86.0838 96.7008 86.0915C91.255 86.2799 87.6625 89.8822 87.6277 89.9169C87.5422 90.0027 87.4219 90.0456 87.2986 90.0287C87.1771 90.015 87.0721 89.9395 87.0133 89.8356C80.5471 78.3833 68.6935 80.2144 68.5775 80.2346C68.4792 80.2495 68.3786 80.2289 68.2983 80.1772C67.4375 79.6043 66.3006 79.8183 66.2894 79.8202C57.739 81.7442 54.8854 77.7329 54.2152 76.459C54.0536 76.1518 53.9879 75.9493 53.9793 75.9252C53.9205 75.7437 54.0021 75.5495 54.1684 75.462C54.3347 75.3745 54.5443 75.4237 54.6557 75.5734C56.3376 77.8311 64.0418 75.8741 66.8689 74.9302C77.6984 70.9122 88.3381 74.1699 88.4438 74.2001C88.4731 74.2092 88.4992 74.22 88.5254 74.2388C92.5642 76.6458 95.2556 79.0916 96.5235 81.5016L96.5252 81.5048ZM96.4212 85.3273C96.5654 84.8795 96.7872 83.6636 95.8409 81.8649C94.6436 79.5893 92.0646 77.2561 88.1746 74.9301C87.4442 74.7137 77.3741 71.8633 67.1316 75.6624C66.1941 75.9759 59.1272 78.2595 55.5714 77.0655C56.8257 78.5182 59.7787 80.4912 66.1312 79.0616C66.1971 79.0473 67.4949 78.7977 68.6015 79.4496C70.0188 79.272 81.0734 78.2739 87.4458 89.0278C88.5076 88.0891 91.7688 85.5724 96.4244 85.3256L96.4212 85.3273Z" fill="#FFDB6E"/>
<path d="M86.0658 67.6623C86.1483 67.8191 86.1136 68.0172 85.9787 68.1331C85.839 68.2557 85.6338 68.2614 85.4875 68.1464C73.5996 58.9539 52.5243 67.1528 52.3111 67.2364C52.2133 67.2756 52.1049 67.2714 52.0086 67.228C51.1827 66.8534 49.7603 66.7886 49.4642 66.7768C41.1226 69.0977 38.2836 64.6251 37.797 63.7001C37.7279 63.5689 37.6973 63.4951 37.6973 63.4951C37.6257 63.3203 37.6893 63.1152 37.8537 63.0164C38.015 62.9193 38.2257 62.9474 38.3485 63.0953C40.1894 65.2284 47.7437 62.7537 50.4988 61.6188C60.9798 56.8606 69.5084 57.1302 69.5926 57.135C80.4754 58.1929 86.0036 67.552 86.0574 67.6463C86.059 67.6495 86.0624 67.6559 86.0641 67.6591L86.0658 67.6623ZM52.1719 66.4597C54.0165 65.7671 72.3162 59.1919 84.167 66.3116C82.0395 63.6182 77.1434 58.6505 69.5393 57.9108C69.4779 57.9104 61.1176 57.6503 50.8048 62.3324C49.888 62.7085 42.98 65.4725 39.3499 64.5177C40.6721 65.8898 43.5846 67.6307 49.3109 66.0197C49.3462 66.0093 49.385 66.0053 49.4222 66.0061C49.4917 66.0063 51.1009 66.0383 52.1736 66.4629L52.1719 66.4597Z" fill="#FFDB6E"/>
<path d="M68.9244 53.1099C69.4228 54.0573 69.6091 54.6908 69.6162 54.7198C69.6634 54.887 69.5976 55.0646 69.4491 55.155C69.3024 55.2486 69.1128 55.2298 68.9827 55.1144C56.3595 43.7792 36.8295 54.892 36.6331 55.0076C36.451 55.1116 36.217 55.0549 36.1097 54.8743C35.7984 54.3679 34.9084 54.3294 34.5453 54.3611C24.545 57.6814 21.4347 52.1419 21.3069 51.9068C21.2159 51.7339 21.2696 51.5177 21.4322 51.4077C21.5948 51.2976 21.8168 51.3238 21.9444 51.4733C23.7804 53.6049 31.5936 50.8305 34.4482 49.582C44.9196 44.8288 53.1923 44.3871 53.2747 44.3806C53.2876 44.382 53.3021 44.3784 53.3151 44.3798C63.1863 44.9197 67.3315 50.0822 68.9261 53.1131L68.9244 53.1099ZM68.2586 53.5052L68.2401 53.47C66.7246 50.5895 62.769 45.6787 53.2925 45.1518C52.8484 45.177 44.8539 45.7052 34.7636 50.2824C33.8441 50.6844 26.9941 53.5977 23.2243 52.9126C24.8262 54.2111 28.1725 55.6666 34.3435 53.605C34.3676 53.5964 34.3966 53.5894 34.424 53.5872C34.4853 53.5795 35.8016 53.4427 36.5427 54.1684C37.7047 53.5366 42.231 51.2125 47.8959 49.9893C55.9748 48.2479 62.9777 49.4592 68.2616 53.4954L68.2586 53.5052Z" fill="#FFDB6E"/>
<path d="M52.2742 41.082C52.3533 41.2324 52.3249 41.419 52.2014 41.5412C52.0746 41.6651 51.8811 41.6852 51.7321 41.5961C36.8791 32.6273 15.2143 43.0816 14.9966 43.1879C14.9455 43.2148 14.8859 43.2258 14.8293 43.2269C10.861 43.2511 8.35003 42.3123 7.36328 40.4368C6.65606 39.0925 7.01721 37.7379 7.12051 37.422C7.14069 37.3051 7.2112 37.1986 7.32312 37.1397C7.5118 37.0404 7.74613 37.1133 7.84548 37.3021C7.84548 37.3021 7.84716 37.3053 7.84885 37.3085C7.85558 37.3213 7.86232 37.3341 7.86737 37.3437C7.89802 37.4175 7.92867 37.4913 7.96403 37.5585C9.5014 40.4806 17.1947 37.7734 20.0291 36.4865C28.5398 31.6697 35.3715 32.3539 35.9939 32.427C46.9395 31.8581 52.2218 40.9747 52.2738 41.0658C52.2755 41.0691 52.2772 41.0723 52.2789 41.0755L52.2742 41.082ZM14.7354 42.4508C16.1809 41.768 36.0246 32.656 50.6614 40.112C48.759 37.668 43.9261 32.7815 35.9957 33.2065C35.9715 33.207 35.9472 33.2075 35.9245 33.2031C35.8548 33.1948 28.9033 32.3529 20.3767 37.1781C19.93 37.3845 10.5914 41.5744 7.71289 38.5324C7.69799 38.9775 7.7597 39.5294 8.04427 40.0703C8.866 41.6322 11.1773 42.4553 14.7337 42.4476L14.7354 42.4508Z" fill="#FFDB6E"/>
</g>
<defs>
<clipPath id="clip0_0_214">
<rect width="99.1967" height="62.1057" fill="white" transform="translate(46.1868 116.705) rotate(-117.75)"/>
</clipPath>
</defs>
</svg>
