<svg width="109" height="120" viewBox="0 0 109 120" fill="none" xmlns="http://www.w3.org/2000/svg">
<g clip-path="url(#clip0_0_222)">
<path d="M30.9777 20.1262C29.9365 20.5488 29.5891 21.8123 29.3081 22.8068C28.9541 24.053 28.8597 25.4192 29.3052 26.6542C29.9004 28.3052 32.4267 30.6235 34.1985 29.0903C34.4001 28.9164 34.279 28.5384 34.0248 28.4922C33.3181 28.3644 32.635 28.3947 31.9752 28.0579C31.2269 27.6764 30.6417 26.9993 30.3588 26.2135C30.0426 25.335 30.0501 24.3495 30.2055 23.4364C30.3378 22.6597 30.5616 21.2416 31.2558 20.7516C31.5544 20.5416 31.3621 19.9681 30.9773 20.1247L30.9777 20.1262Z" fill="#674BA0"/>
<path d="M33.111 29.3038C35.5068 29.189 37.8471 28.7285 40.0804 27.8442C42.3137 26.96 44.3606 25.7328 46.4323 24.5576C48.6562 23.2982 50.8796 22.0373 53.1034 20.7779C54.1704 20.1733 55.2374 19.5686 56.3059 18.9635C56.8394 18.6612 57.3785 18.3669 57.9056 18.0536C58.4327 17.7403 59.0098 17.483 59.2618 16.9246C59.4052 16.6058 59.2108 16.318 58.8765 16.2838C58.3451 16.2284 57.9305 16.509 57.4652 16.7531C56.9235 17.0386 56.3986 17.3592 55.8683 17.667C54.8072 18.2812 53.7442 18.8943 52.6832 19.5084C50.5592 20.7356 48.4352 21.9628 46.3112 23.19C44.1872 24.4172 42.2693 25.5749 40.1436 26.564C38.0178 27.5531 35.5248 28.2726 33.1023 28.5664C32.6415 28.6218 32.6291 29.3252 33.112 29.3018L33.111 29.3038Z" fill="#674BA0"/>
<path d="M31.0668 20.8915C34.4119 18.3631 37.9671 16.0715 41.6685 14.101C43.5498 13.0996 45.4789 12.174 47.4352 11.3255C49.3914 10.4769 51.2946 9.87111 53.0266 8.74817C53.293 8.57631 53.1927 8.093 52.8443 8.12056C50.6922 8.28941 48.7185 9.17188 46.7629 10.0283C44.8187 10.8798 42.9259 11.8252 41.0748 12.8642C37.3161 14.9747 33.8009 17.426 30.5171 20.2152C30.141 20.5343 30.6684 21.1946 31.0672 20.8929L31.0668 20.8915Z" fill="#674BA0"/>
<path d="M53.3348 8.76433C55.2566 9.12359 57.5115 9.54621 58.5699 11.3878C59.7375 13.417 58.8133 15.2981 57.3778 16.8506C57.1393 17.1072 57.3921 17.6071 57.7547 17.4681C60.0824 16.5772 60.7774 13.5537 59.8359 11.4235C58.7292 8.91861 56.0016 8.30023 53.5432 7.93992C53.0083 7.86153 52.7885 8.6636 53.3352 8.76581L53.3348 8.76433Z" fill="#674BA0"/>
<path d="M43.0225 15.9543C42.2645 17.0201 42.6617 18.5253 43.5994 19.3546C44.4783 20.1306 46.6017 20.7692 47.5942 19.9412C47.7799 19.7847 47.6669 19.5229 47.5123 19.4109C47.1644 19.1581 46.7979 19.1732 46.3806 19.1407C45.8054 19.0949 45.2421 19.0183 44.7257 18.744C43.8925 18.3022 43.2961 17.2937 43.846 16.4069C44.1707 15.8834 43.365 15.4753 43.023 15.9558L43.0225 15.9543Z" fill="#674BA0"/>
<path d="M43.0374 16.4865C44.4857 15.3483 46.0561 14.3764 47.7366 13.6175C48.5796 13.2365 49.451 12.9145 50.3344 12.645C51.082 12.4166 52.1011 12.3543 52.669 11.7778C52.8276 11.6164 52.7198 11.3947 52.5368 11.323C51.748 11.0173 50.6918 11.5099 49.9358 11.7648C49.0689 12.0582 48.2218 12.4084 47.395 12.8008C45.6557 13.628 44.0498 14.6823 42.5673 15.9072C42.2439 16.1757 42.7007 16.7476 43.037 16.485L43.0374 16.4865Z" fill="#674BA0"/>
<path d="M53.6632 11.8124C54.6055 12.2321 54.9173 13.3329 54.624 14.2797C54.3075 15.3068 53.4514 16.068 52.6029 16.6732C51.6505 17.3519 50.6346 17.9337 49.5949 18.4663C48.5551 18.999 47.3349 19.4576 46.2938 20.0964C46.0363 20.2544 46.1437 20.7069 46.4646 20.6841C47.9953 20.5757 49.5201 19.8781 50.855 19.1508C52.1898 18.4235 53.4947 17.6376 54.5183 16.5684C55.3409 15.708 55.9076 14.6194 55.7652 13.4053C55.6379 12.3149 55.0181 11.4028 53.9726 11.026C53.5209 10.8641 53.2208 11.6159 53.6628 11.811L53.6632 11.8124Z" fill="#674BA0"/>
<path d="M31.4618 29.1647C33.0971 34.0031 34.9821 38.756 36.8104 43.5239C37.6191 45.6333 38.3382 47.8265 39.3484 49.8502C40.0311 51.2165 41.2368 52.9736 42.9735 52.8838C43.4418 52.8598 43.5293 52.3044 43.1801 52.0583C42.4792 51.5637 41.8085 51.1228 41.2875 50.4239C40.8083 49.78 40.4426 49.0519 40.126 48.316C39.2124 46.1937 38.3944 44.0245 37.5224 41.8854C35.7487 37.5373 34.0087 33.1729 32.0622 28.899C31.907 28.5582 31.3411 28.8155 31.4589 29.1656L31.4618 29.1647Z" fill="#674BA0"/>
<path d="M42.5615 25.9064C47.3141 28.6813 52.2741 31.0099 57.4166 32.9717C59.9807 33.9499 62.5743 34.8474 65.203 35.6338C67.7999 36.4103 70.4803 37.2362 73.1986 37.4136C73.5684 37.4375 73.7307 36.8411 73.3789 36.6967C70.8983 35.6798 68.2416 35.0953 65.6762 34.3225C63.1108 33.5497 60.5312 32.7058 57.9997 31.779C52.858 29.8971 47.8177 27.6958 42.8963 25.3015C42.4962 25.107 42.1753 25.6823 42.5619 25.9079L42.5615 25.9064Z" fill="#674BA0"/>
<path d="M70.2346 37.623C73.3588 38.2302 76.552 38.5612 79.6288 39.392C80.9686 39.7539 82.2803 40.2183 83.5247 40.832C84.7691 41.4457 85.958 42.2774 87.1455 43.0437C87.458 43.246 87.8855 42.8111 87.6561 42.5078C85.9593 40.2592 83.0237 39.1408 80.3819 38.4254C77.1297 37.5431 73.7619 37.3076 70.4406 36.8121C69.9154 36.7341 69.6988 37.5192 70.2366 37.624L70.2346 37.623Z" fill="#674BA0"/>
<path d="M41.4091 51.4999C48.4086 58.1459 54.6018 66.9462 64.3279 69.7863C66.5524 70.4355 69.4331 71.0062 71.6883 70.2085C72.1089 70.0591 72.1764 69.3685 71.6728 69.2762C70.6456 69.0894 69.591 69.0739 68.5553 68.9408C67.5196 68.8077 66.4616 68.5867 65.4413 68.2858C63.3585 67.6706 61.3804 66.8137 59.5011 65.7278C55.3475 63.3234 51.8789 59.9722 48.4186 56.6938C46.3182 54.7033 44.2191 52.7333 41.9471 50.9368C41.5612 50.631 41.0395 51.1509 41.4099 51.5029L41.4091 51.4999Z" fill="#674BA0"/>
<path d="M71.2514 70.2906C76.4939 69.4962 81.5015 67.4184 85.7164 64.1921C87.738 62.6456 89.6643 60.8817 91.2104 58.8535C92.5208 57.1357 93.8493 54.8889 93.295 52.6494C93.1982 52.2612 92.6636 52.322 92.5559 52.664C91.8578 54.8701 91.0541 56.8011 89.5511 58.6021C88.0278 60.4267 86.2504 62.0624 84.3367 63.472C80.3786 66.3882 75.8308 68.4685 71.0127 69.4744C70.4647 69.5887 70.7224 70.3706 71.2499 70.291L71.2514 70.2906Z" fill="#674BA0"/>
<path d="M86.745 41.7813C89.1578 43.7642 91.8223 45.9832 92.4808 49.1948C92.7629 50.5749 92.6655 52.0412 92.2878 53.3937C91.8871 54.8328 91.0735 56.0668 90.4088 57.3873C90.2583 57.6873 90.5979 58.0658 90.9037 57.8585C93.512 56.0934 94.258 52.0958 93.6993 49.1947C92.9962 45.5364 90.0245 43.2546 87.1665 41.204C86.836 40.967 86.4275 41.5228 86.7435 41.7817L86.745 41.7813Z" fill="#674BA0"/>
<path d="M84.8921 44.5439C85.9165 46.2352 86.9163 48.0298 87.18 50.0206C87.4127 51.7721 86.9581 53.4512 86.1156 54.9834C84.3861 58.1266 81.6309 60.8231 78.3281 62.2647C78.0332 62.3936 78.1423 62.8135 78.4688 62.749C82.2441 62.0109 85.5578 58.667 87.2896 55.355C88.1524 53.7047 88.6276 51.8644 88.3803 50.0017C88.0909 47.8119 86.9343 45.837 85.7542 44.0132C85.4017 43.4687 84.5548 43.9853 84.8917 44.5425L84.8921 44.5439Z" fill="#674BA0"/>
<path d="M36.2114 42.5673C31.5135 44.214 27.2751 46.9555 23.7747 50.4914C22.0548 52.2306 20.5139 54.1499 19.1835 56.2019C18.4892 57.2715 17.8558 58.3796 17.2865 59.5202C16.7648 60.5653 16.1573 61.7235 16.0882 62.9061C16.0665 63.268 16.6054 63.4925 16.8361 63.1981C17.5402 62.3002 17.9206 61.1615 18.4212 60.1434C18.9493 59.0707 19.5338 58.0266 20.1715 57.0166C21.4414 55.0046 22.9271 53.1333 24.5858 51.4264C27.9408 47.9759 31.9922 45.1927 36.4173 43.2873C36.8482 43.1013 36.6759 42.4035 36.208 42.5667L36.2114 42.5673Z" fill="#674BA0"/>
<path d="M16.4619 61.4124C15.6166 64.0568 15.5619 66.8639 16.3344 69.5284C16.7141 70.8353 17.269 72.1042 18.0008 73.2527C18.7107 74.3644 19.5681 75.5694 20.7845 76.1528C21.0458 76.2787 21.36 75.9952 21.1892 75.7278C20.5029 74.6589 19.5564 73.7937 18.8674 72.7207C18.1784 71.6478 17.6207 70.4855 17.2331 69.2673C16.4388 66.7709 16.276 64.0718 16.8961 61.52C16.9649 61.2374 16.5493 61.1388 16.4614 61.4109L16.4619 61.4124Z" fill="#674BA0"/>
<path d="M34.5271 37.4662C25.2756 40.6312 17.9226 48.2313 14.3805 57.2545C13.3859 59.7886 12.6316 62.4643 12.6694 65.2029C12.6757 65.6335 13.2942 65.6956 13.4104 65.2887C14.0416 63.0732 14.5699 60.8299 15.3432 58.6563C16.1221 56.4683 17.1485 54.3702 18.3558 52.386C20.7896 48.3897 23.9687 44.9198 27.7408 42.1425C29.8978 40.5534 32.2556 39.175 34.712 38.1027C35.0912 37.938 34.943 37.3229 34.5271 37.4662Z" fill="#674BA0"/>
<path d="M13.7154 62.7019C12.6366 65.5872 12.8303 68.8346 14.2613 71.5607C15.0013 72.9696 16.0578 74.1247 17.3021 75.1084C18.6481 76.1714 20.0869 77.2443 21.6137 78.029C21.9383 78.1957 22.4026 77.8045 22.1441 77.4729C21.2218 76.2932 19.9273 75.5675 18.7266 74.7009C17.4548 73.7829 16.2732 72.733 15.4231 71.4042C13.8067 68.8744 13.3035 65.6945 14.1346 62.8075C14.2138 62.5331 13.8084 62.4475 13.7139 62.7024L13.7154 62.7019Z" fill="#674BA0"/>
<path d="M20.4016 76.7749C23.358 79.2693 26.8506 80.9514 30.6496 81.7149C34.9401 82.579 39.2373 81.9791 43.5058 81.2755C52.7525 79.7517 62.1126 78.038 70.6477 74.0098C74.9581 71.9745 79.5528 69.3153 82.4187 65.4192C82.7503 64.969 82.2859 64.1719 81.7322 64.5761C78.3533 67.0487 75.1088 69.5975 71.3681 71.5378C67.6274 73.4781 63.334 75.0137 59.1214 76.1863C54.6069 77.4418 50.0076 78.3056 45.4124 79.2003C41.2439 80.011 37.0153 80.9849 32.7413 80.6364C28.4658 80.2883 24.2941 78.6947 20.7979 76.2322C20.4847 76.0109 20.107 76.529 20.4002 76.7753L20.4016 76.7749Z" fill="#674BA0"/>
<path d="M56.5061 32.8438C59.2651 31.6692 62.3122 31.5414 65.2711 31.5577C67.998 31.571 70.7415 31.6915 73.4441 32.0689C78.5194 32.7771 83.5302 34.5065 87.3564 38.0165C89.3702 39.864 90.8347 42.1529 92.0518 44.5793C92.2737 45.0225 92.8779 44.6708 92.7986 44.2486C91.8532 39.2259 87.2168 35.3476 82.7822 33.297C77.6239 30.9106 71.8391 30.391 66.2185 30.4529C62.8033 30.4907 59.3578 30.7118 56.3018 32.3892C56.0564 32.5229 56.2395 32.9597 56.5051 32.8458L56.5061 32.8438Z" fill="#674BA0"/>
<path d="M62.6141 34.2881C67.5959 33.547 72.6719 33.6609 77.6146 34.6254C80.0383 35.0983 82.4539 35.7481 84.7641 36.6206C85.8353 37.0252 86.901 37.5323 87.8029 38.2439C88.6571 38.9182 89.2256 39.7699 89.7308 40.7185C89.907 41.0484 90.3911 40.8581 90.4 40.524C90.4625 38.1583 87.9882 36.6656 86.0742 35.8637C83.6719 34.8561 81.0832 34.2022 78.5247 33.7348C73.2396 32.7689 67.8148 32.7532 62.5122 33.6115C62.1303 33.6728 62.2268 34.3478 62.613 34.29L62.6141 34.2881Z" fill="#674BA0"/>
<path d="M36.4567 48.4516C36.9024 50.2566 35.0729 51.4142 33.4902 51.4433C33.0479 51.4517 32.5851 51.4116 32.1563 51.3007C31.9342 51.2436 31.7076 51.1156 31.473 51.1261C30.9463 51.1478 30.7692 51.6381 30.5738 52.0375C30.3044 52.5914 29.8958 53.434 29.3658 53.7705C29.0134 53.9946 28.4936 53.7084 28.0413 53.9311C26.8153 54.5355 26.9612 55.944 27.274 57.0429L27.4965 56.4658C27.2148 56.6181 27.0382 56.7783 26.9377 57.0846C26.9059 57.1851 26.9653 57.312 27.0575 57.3588C27.3478 57.5067 27.5946 57.4831 27.9061 57.3893C28.1673 57.3103 28.3373 57.0223 28.2552 56.7563C28.0387 56.0553 27.7059 54.7219 28.8538 54.8929C29.458 54.9832 29.7652 54.8635 30.2041 54.4013C30.643 53.9391 31.0128 53.3993 31.2675 52.8225C31.4085 52.5012 31.4309 52.2081 31.7569 52.0589C32.0828 51.9098 32.4809 52.0696 32.8486 52.1085C35.1001 52.348 37.796 50.8457 37.1629 48.2464C37.0504 47.7875 36.3412 47.9935 36.4552 48.452L36.4567 48.4516Z" fill="#674BA0"/>
<path d="M26.1067 57.4349C26.2644 57.9336 26.3669 58.4354 26.386 58.96C26.4016 59.3894 26.3732 59.7836 26.5534 60.1828C26.6252 60.3413 26.8937 60.3594 26.9985 60.2281C27.6271 59.4353 27.2387 58.0541 26.9417 57.1923C26.7611 56.6699 25.9402 56.9004 26.1097 57.434L26.1067 57.4349Z" fill="#674BA0"/>
<path d="M23.194 60.6336C22.565 61.1046 21.7879 61.7291 21.9034 62.6131C21.9909 63.2843 22.5142 63.776 23.1931 63.6701C23.5092 63.6198 23.4193 63.1944 23.1832 63.1108C21.9888 62.686 20.8209 63.7059 21.1138 64.9627C21.3897 66.1445 23.1388 67.092 24.1289 66.1173C24.2548 65.9927 24.186 65.7613 24.0143 65.7231C23.4311 65.5946 22.8558 65.7698 22.3181 65.4055C21.9946 65.1872 21.7437 64.8374 21.7413 64.4313C21.7365 63.829 22.3986 63.334 22.973 63.6475L23.1088 63.1036C22.4624 63.1057 22.4184 62.385 22.6749 61.9694C22.8793 61.6394 23.221 61.4008 23.528 61.1755C23.8561 60.9344 23.5227 60.3891 23.1944 60.635L23.194 60.6336Z" fill="#674BA0"/>
<path d="M24.4695 66.5548C25.9824 66.5509 27.9504 65.345 27.7394 63.6239C27.7171 63.4367 27.4635 63.3374 27.3602 63.5291C26.7107 64.7363 25.9786 65.8362 24.4613 65.8911C24.0338 65.9063 24.0412 66.556 24.4695 66.5548Z" fill="#674BA0"/>
<path d="M26.8451 62.071C27.8029 60.7422 29.647 61.0328 30.289 62.4637C30.3988 62.7088 30.8317 62.6903 30.9331 62.4479C31.395 61.3353 32.1671 60.0252 32.1627 58.7886C32.1619 58.3548 32.037 57.9139 31.7115 57.6113C31.386 57.3088 30.9857 57.3402 30.6459 57.1266C30.3494 56.9405 30.3098 56.9921 30.6086 56.7387C30.9075 56.4853 31.4369 56.3347 31.8212 56.2039C32.4873 55.9767 33.3922 55.6818 34.0958 55.8986C34.4905 56.0193 35.0139 56.4502 34.7496 56.9497C34.6209 57.1921 34.3051 57.2102 34.0904 57.3334C33.8193 57.489 33.6735 57.6114 33.6367 57.9216C33.6281 57.9913 33.686 58.0802 33.7488 58.1084C34.5964 58.4947 35.6116 58.701 36.4756 58.221C37.1585 57.8416 37.6451 56.9908 37.4539 56.2057C37.3472 55.7722 37.0621 55.4483 36.7151 55.1824C36.2082 54.7916 35.1534 54.1837 36.1717 53.5387C37.6189 52.6235 39.1312 53.8608 39.521 55.2304C39.6004 55.5036 40.0624 55.4526 40.0304 55.1545C39.8379 53.2759 37.7719 52.1498 36.0559 52.9078C35.2976 53.2434 34.8049 53.8686 35.1708 54.7023C35.5652 55.6014 37.4615 56.3812 36.1569 57.4168C35.8476 57.662 35.4857 57.7591 35.0936 57.7802C35.0051 57.785 34.3785 57.8278 34.3408 57.7587C34.2653 57.6204 34.9687 57.2784 35.0627 57.1486C35.4069 56.6755 35.3222 55.8978 34.9274 55.484C34.2287 54.7534 32.9941 54.9856 32.1362 55.2268C31.3882 55.4377 29.9069 55.8376 29.5901 56.6535C29.2552 57.5179 30.1766 57.777 30.7883 57.9981C31.6765 58.3197 31.364 59.3057 31.1106 59.9862C30.8364 60.7225 30.53 61.4472 30.2452 62.1801L30.923 62.0761C30.0038 60.1556 27.478 60.0551 26.2998 61.7746C26.072 62.1066 26.6153 62.3908 26.8441 62.0729L26.8451 62.071Z" fill="#674BA0"/>
<path d="M40.8855 56.2352C40.6989 57.8588 39.2287 58.5789 37.7724 58.7554C37.6268 58.7737 37.5196 58.9185 37.6063 59.0567C38.1401 59.9217 37.6474 60.8287 36.7257 61.1045C36.1303 61.2823 35.4867 61.2386 34.8735 61.2999C34.6722 61.3199 34.6296 61.5933 34.8321 61.6546C35.7419 61.9348 36.9553 61.9778 37.7246 61.3155C38.4939 60.6532 38.4811 59.6144 37.9457 58.8492L37.7286 59.1461C39.5642 59.8442 41.3439 57.9292 41.495 56.2278C41.5302 55.8349 40.9317 55.8582 40.8874 56.2362L40.8855 56.2352Z" fill="#674BA0"/>
<path d="M31.3506 61.2601C31.7448 62.1913 32.4326 62.9395 33.3542 63.3763C34.0824 63.722 35.3092 64.0927 35.9751 63.4668C36.0998 63.3489 36.0108 63.1698 35.8742 63.1198C35.5348 62.9958 35.2356 63.0491 34.8836 63.0313C34.4435 63.0086 34.0091 62.9058 33.6086 62.7211C32.8412 62.3676 32.2654 61.7726 31.9157 61.011C31.7716 60.6974 31.2171 60.9385 31.3525 61.2611L31.3506 61.2601Z" fill="#674BA0"/>
<path d="M34.1408 64.4257C33.4101 65.8342 32.0477 66.3453 30.5504 66.5353C30.3754 66.5573 30.3339 66.7904 30.5141 66.8469C32.1837 67.3771 33.9403 66.1894 34.6984 64.7313C34.8869 64.369 34.3304 64.0615 34.1408 64.4257Z" fill="#674BA0"/>
<path d="M29.0414 64.7013C29.3846 65.761 28.2536 66.4548 27.3239 66.0955C27.1755 66.0377 27.08 66.256 27.182 66.3529C28.4215 67.5301 30.1398 66.0173 29.5404 64.5564C29.4173 64.2543 28.9358 64.3765 29.0399 64.7018L29.0414 64.7013Z" fill="#674BA0"/>
<path d="M25.5339 66.8862C26.4452 67.5694 27.5122 67.9593 28.6603 67.9652C29.4308 67.9704 30.8647 67.9045 30.9291 66.9105C30.9343 66.8289 30.8757 66.7323 30.8015 66.6978L30.6865 66.6447C30.5342 66.5737 30.4019 66.6986 30.426 66.8533C30.4859 67.2475 28.4157 67.3445 28.1876 67.3275C27.3287 67.2615 26.5446 66.9609 25.8402 66.4705C25.6005 66.3031 25.2995 66.7093 25.5354 66.8858L25.5339 66.8862Z" fill="#674BA0"/>
<path d="M24.8897 66.3047C24.6414 66.8316 24.5053 67.3964 24.5274 67.9809C24.5438 68.4133 24.5773 69.0425 25.0349 69.2139C25.1032 69.2389 25.1972 69.1923 25.2285 69.1288C25.3981 68.7896 25.1767 68.4088 25.1495 68.05C25.1106 67.5456 25.2082 67.0529 25.4206 66.5956C25.5834 66.2441 25.0565 65.9503 24.8897 66.3047Z" fill="#674BA0"/>
<path d="M21.1026 68.859C20.9152 70.5516 22.3209 71.8311 23.8799 72.1517C25.6111 72.507 27.7502 72.1994 28.966 70.8246C29.1074 70.6649 28.9605 70.3858 28.7416 70.4558C27.4044 70.8875 26.1068 71.439 24.6705 71.3471C23.2341 71.2551 21.6764 70.4858 21.7518 68.8497C21.7707 68.4231 21.146 68.4556 21.1011 68.8594L21.1026 68.859Z" fill="#674BA0"/>
<path d="M27.3018 70.9653C27.8837 72.7692 30.1531 72.7664 31.6147 72.1384C33.0763 71.5104 34.8005 69.8629 34.5957 68.1192C34.5666 67.8699 34.2475 67.7608 34.1078 67.9983C33.4326 69.1393 32.9808 70.2202 31.7913 70.9501C30.8808 71.5077 28.7085 72.1212 28.2464 70.6909C28.0532 70.0921 27.1077 70.3635 27.3018 70.9653Z" fill="#674BA0"/>
<path d="M33.1872 66.9463C33.8994 66.9107 34.6972 66.8551 35.345 67.2114C35.9489 67.5436 36.4121 68.5412 35.7314 69.0496C35.5679 69.1724 35.5758 69.4535 35.8011 69.505C37.2667 69.8414 38.9011 69.333 39.7746 68.0623C40.1708 67.486 40.379 66.777 40.395 66.0805C40.414 65.223 40.0885 64.6498 39.7059 63.9187L39.5124 64.2695C40.4031 64.1741 41.3038 64.0582 42.1702 63.8241C42.4991 63.7349 42.4348 63.1707 42.0803 63.216C41.1859 63.3318 40.3089 63.5625 39.4455 63.8182C39.3152 63.856 39.2177 64.0397 39.3124 64.1611C40.0156 65.0618 39.9213 66.6441 39.3513 67.5832C38.6429 68.7482 37.2418 69.2914 35.9252 69.0205L35.9949 69.4759C36.6625 68.9553 36.68 68.0486 36.2038 67.3766C35.5365 66.4335 34.2076 66.4849 33.1837 66.5582C32.9352 66.5759 32.936 66.96 33.1892 66.9473L33.1872 66.9463Z" fill="#674BA0"/>
<path d="M40.3466 61.6475C40.7629 61.6435 43.5227 62.0411 42.8064 62.7697C42.7119 62.8644 42.7026 63.0592 42.8162 63.1463C43.1467 63.3994 43.5239 63.2722 43.7832 62.9599C44.1101 62.5654 43.9608 61.9795 43.6309 61.6398C42.8676 60.8526 41.3643 60.7129 40.3357 60.7811C39.7815 60.8188 39.7859 61.6518 40.3462 61.646L40.3466 61.6475Z" fill="#674BA0"/>
<path d="M42.6818 62.1861C43.3473 61.2385 44.6389 60.8985 44.9721 59.6967C45.1714 58.9791 44.9018 57.7859 43.9393 57.9102C43.7182 57.9392 43.5762 58.1966 43.7585 58.3711C45.1 59.6452 42.6049 60.8937 41.9967 61.8119C41.7164 62.2344 42.396 62.5894 42.6803 62.1866L42.6818 62.1861Z" fill="#674BA0"/>
<path d="M40.9741 56.5569C41.8804 55.8468 43.0901 55.6059 44.1556 56.1179C44.65 56.3553 45.0633 56.7333 45.3591 57.1934C45.5989 57.5658 46.0527 58.4588 45.5693 58.8234C45.4627 58.904 45.4228 59.1094 45.5774 59.1718C46.1483 59.4015 46.4803 58.8807 46.4831 58.3434C46.4877 57.5413 45.9515 56.685 45.3859 56.1528C44.067 54.9121 42.0408 54.8955 40.6401 56.015C40.3262 56.2664 40.6494 56.8098 40.9737 56.5555L40.9741 56.5569Z" fill="#674BA0"/>
<path d="M45.4341 59.3416C46.4183 59.5793 47.2571 60.3829 47.3044 61.4357C47.3443 62.308 46.882 62.8555 46.44 63.5444C46.3551 63.678 46.5086 63.8912 46.6644 63.8251C47.6212 63.4158 48.0088 62.147 47.8364 61.1834C47.6281 60.0189 46.675 59.1588 45.5346 58.936C45.2708 58.8846 45.1683 59.2778 45.4326 59.342L45.4341 59.3416Z" fill="#674BA0"/>
<path d="M44.8338 62.9397C45.6173 63.0836 45.6968 64.103 45.3196 64.6674C44.8114 65.4268 43.7447 65.7287 42.9725 66.1324C42.7269 66.2598 42.8588 66.6474 43.1201 66.6404C44.4255 66.6022 46.0355 66.0208 46.397 64.6122C46.6551 63.6052 46.1772 62.2916 45.0362 62.1443C44.5222 62.0774 44.3039 62.8455 44.8342 62.9412L44.8338 62.9397Z" fill="#674BA0"/>
<path d="M39.1494 66.5401C39.885 66.6626 40.6497 66.5702 41.3782 66.7236C42.4077 66.9402 42.6125 68.1538 41.615 68.6438C41.4647 68.7179 41.5469 68.9566 41.7042 68.951C42.8597 68.9051 43.4317 67.4754 42.7101 66.6106C41.8976 65.6376 40.416 66.02 39.3186 65.868C38.8834 65.807 38.704 66.4661 39.1494 66.5401Z" fill="#674BA0"/>
<path d="M35.4013 70.1736C35.9425 70.7434 36.4627 71.401 37.0727 71.8979C37.6344 72.3561 38.2756 71.6397 37.8323 71.0975C37.335 70.491 36.6767 69.9712 36.1084 69.4301C35.6275 68.9741 34.9485 69.6982 35.4013 70.1736Z" fill="#674BA0"/>
<path d="M31.2418 71.7279C30.8446 72.9195 30.6001 74.7969 32.11 75.247C33.321 75.6077 35.0967 75.4586 35.8786 74.3587C36.0311 74.143 35.8128 73.8173 35.5643 73.835C34.7644 73.8945 34.0272 74.2528 33.2151 74.2485C32.6426 74.2451 32.1153 74.1709 31.9239 73.5731C31.7665 73.0808 31.91 72.4033 32.0272 71.9225C32.153 71.4104 31.4047 71.2386 31.2428 71.726L31.2418 71.7279Z" fill="#674BA0"/>
<path d="M28.6485 71.3123C27.6272 71.7868 27.818 73.1454 28.5637 73.7727C29.6551 74.6887 31.5744 74.7684 32.9292 74.8616C34.5808 74.9759 36.3134 74.8937 37.9186 74.4562C39.5461 74.0122 38.337 72.4258 37.8173 71.5375C37.6255 71.2089 37.376 70.7369 37.4871 70.3347C37.6571 69.7152 38.409 69.761 38.9181 69.7284C39.7515 69.6736 40.6768 69.6754 41.3819 70.1848C42.087 70.6942 42.3534 71.4399 41.8883 72.1819C41.5835 72.6692 41.1404 73.0782 40.9462 73.6311C40.5167 74.8496 41.6254 75.5988 42.6961 75.7858C43.9561 76.0058 45.3067 75.6919 46.3531 74.9555C48.8676 73.1825 48.9418 69.4313 46.6251 67.4589L46.4306 68.2536C48.1217 67.5205 49.8085 68.3308 50.6518 69.8681L50.903 69.2186C50.3052 69.3827 49.6926 69.5287 49.1557 69.0953L49.0478 69.5366C50.3172 69.0702 51.8681 67.8269 51.6071 66.3093C51.3032 64.5448 49.1394 64.4416 48.2954 63.1223L48.184 63.5902C49.2689 63.0636 50.5246 63.1857 51.4209 64.027C52.2702 64.8228 52.4891 66.0018 52.3438 67.1154C52.321 67.2966 52.5694 67.3669 52.6244 67.186C53.4633 64.4089 50.4374 62.2886 47.9124 62.9757C47.6757 63.0397 47.6317 63.2862 47.7167 63.4793C48.2485 64.6796 49.5669 64.9292 50.3861 65.8313C51.5759 67.1415 49.6657 68.3642 48.783 69.1059C48.618 69.2451 48.7451 69.4837 48.9092 69.5401C49.6122 69.7826 50.2714 70.1228 51.0288 70.0773C51.2972 70.0617 51.5433 69.7981 51.4442 69.5178C50.7213 67.4715 48.1078 66.5221 46.1646 67.3492C45.8589 67.4797 45.672 67.8863 45.9701 68.144C47.9433 69.8463 47.8214 73.0685 45.4934 74.395C44.9369 74.712 44.3049 74.902 43.6624 74.9285C43.1503 74.9508 41.8658 74.89 41.783 74.1902C41.7359 73.7907 42.2263 73.3232 42.4346 73.0401C42.7013 72.676 42.9525 72.2971 43.0421 71.8483C43.2204 70.9702 42.7308 70.0587 42.0331 69.5472C41.0658 68.837 39.7897 68.8987 38.6628 69.0707C37.9124 69.1846 37.1735 69.4265 37.0802 70.288C36.9551 71.4437 38.2346 72.4876 37.6898 73.5746L38.0063 73.321C36.303 73.5868 34.6418 73.8372 32.9111 73.7491C32.0553 73.7047 31.2113 73.5848 30.3705 73.4207C30.0147 73.3511 29.6247 73.2963 29.306 73.1166C28.9257 72.902 28.5127 72.2982 29.0601 71.9886C29.5152 71.7315 29.0968 71.1036 28.6441 71.3136L28.6485 71.3123Z" fill="#674BA0"/>
<path d="M51.8953 66.9975C52.6532 67.4675 53.4111 67.9375 54.1671 68.4065C54.8074 68.8033 55.8635 69.1947 55.9583 70.0239C55.9754 70.1711 56.0933 70.2729 56.2446 70.2354C57.1622 70.012 56.467 68.9617 56.0196 68.6321C54.8671 67.7819 53.4336 67.1751 52.1799 66.4792C51.8448 66.2931 51.5725 66.7982 51.8938 66.9979L51.8953 66.9975Z" fill="#674BA0"/>
<path d="M49.8544 72.5339C48.4807 73.1107 47.0561 73.5679 45.5904 73.8447C44.9328 73.9685 44.2529 74.0764 43.5821 74.0279C43.3 74.0073 43.0131 73.9594 42.7439 73.8726C42.2351 73.8123 42.1361 73.5047 42.4485 72.9496C42.5897 72.8942 42.7339 72.849 42.8812 72.8143C43.5169 72.6648 44.1809 72.7233 44.7917 72.9414C45.4026 73.1595 45.9956 73.7142 45.4203 74.3313C45.1512 74.6209 44.7668 74.8559 44.4298 75.0611C43.1739 75.8279 41.7156 76.2132 40.2506 76.2657C40.1665 76.2693 40.1689 76.3935 40.2527 76.3947C41.4193 76.4257 42.5247 76.2295 43.5975 75.7609C44.3596 75.4274 45.4312 74.9159 45.8917 74.18C46.8096 72.7139 44.0083 72.2562 43.1155 72.4051C42.6377 72.4847 41.5721 72.7238 41.6725 73.412C41.7729 74.1003 42.7719 74.3225 43.3071 74.4184C45.496 74.8074 48.0222 73.8925 50.0153 73.0877C50.3588 72.9494 50.1962 72.3897 49.8544 72.5339Z" fill="#674BA0"/>
<path d="M35.6513 76.7099C35.8866 77.1604 36.7095 77.7604 36.6532 78.2684C36.5885 78.8525 35.5901 79.0689 35.1543 79.1603C33.803 79.444 32.4666 79.0443 31.3061 78.3598C30.297 77.7658 29.3978 76.9861 28.537 76.1953C27.5031 75.245 26.4415 74.133 26.3845 72.649C26.3755 72.397 26.0092 72.4074 25.996 72.6546C25.8073 75.9234 28.6681 78.4536 31.6673 79.0395C33.3576 79.37 35.0944 79.2193 36.7489 78.7691C38.6342 78.2566 40.5885 77.4454 42.0905 76.1827C42.3317 75.9797 42.0569 75.5807 41.7781 75.6713C40.1927 76.188 38.7565 77.0584 37.1677 77.5745C35.6717 78.0619 34.092 78.3111 32.5192 78.1643C29.4598 77.8793 26.7111 75.8178 26.3841 72.6476L26.0023 72.704C26.3619 74.3451 27.4444 75.5455 28.6601 76.6464C29.7859 77.6645 30.9892 78.6729 32.4283 79.2108C33.6838 79.6804 35.3095 79.9047 36.5269 79.1875C36.9065 78.9635 37.1736 78.6505 37.1304 78.1922C37.0633 77.4639 36.3478 77.068 36.0191 76.4781C35.8839 76.2339 35.5223 76.4591 35.65 76.7054L35.6513 76.7099Z" fill="#674BA0"/>
<path d="M42.3783 76.3057C43.3183 78.3146 45.7669 78.3815 47.672 78.097C48.7305 77.9384 49.9224 77.7747 50.716 76.9805C51.2646 76.4319 51.5956 75.6424 51.2726 74.8955C51.2034 74.7346 50.9436 74.7412 50.9463 74.9439C50.9769 76.9944 48.6911 77.1396 47.1574 77.2985C45.6237 77.4574 43.8502 77.4154 43.1179 75.8506C42.8818 75.3475 42.1445 75.8051 42.3798 76.3053L42.3783 76.3057Z" fill="#674BA0"/>
<path d="M48.0842 73.4149C46.9442 75.2386 50.038 75.7634 51.152 75.8289C52.5882 75.9145 54.7906 75.1673 54.5307 73.3388C54.5011 73.1264 54.2021 72.9923 54.0825 73.2272C53.6512 74.0859 52.9112 74.5892 51.9516 74.7126C51.5677 74.7617 48.4584 74.6642 48.9068 73.8645C49.2035 73.3331 48.403 72.9043 48.0837 73.4134L48.0842 73.4149Z" fill="#674BA0"/>
<path d="M53.9401 70.9354C55.5112 69.9937 57.3929 70.1981 58.8807 71.2022C58.9629 71.2584 59.0524 71.13 58.9819 71.064C57.5637 69.7417 55.3899 69.659 53.743 70.6163C53.5343 70.7378 53.7322 71.0598 53.9401 70.9354Z" fill="#674BA0"/>
<path d="M58.4295 75.601C59.907 75.641 61.5108 75.4361 62.6735 74.4369C63.5716 73.6651 64.2139 72.4056 63.8855 71.2199C63.8636 71.1446 63.7328 71.1586 63.7441 71.2418C64.1432 74.3782 61.0462 75.5502 58.4288 75.4715C58.3446 75.4688 58.3472 75.5993 58.431 75.6006L58.4295 75.601Z" fill="#674BA0"/>
<path d="M57.6847 69.5336C57.7335 71.0167 59.8191 72.6415 61.1456 71.449C61.2539 71.3519 61.1298 71.1958 61.0078 71.2232C60.3659 71.3681 59.7871 71.4097 59.1875 71.0811C58.5879 70.7524 58.2051 70.1975 58.1903 69.5276C58.1827 69.2031 57.6742 69.2099 57.6851 69.535L57.6847 69.5336Z" fill="#674BA0"/>
<path d="M63.2273 71.4079C63.678 71.285 64.2596 71.0984 64.6756 71.4083C64.8172 71.5145 64.9576 71.6995 64.8946 71.886C64.8377 72.0546 64.6316 72.1689 64.4619 72.1318C64.2767 72.0911 64.1317 72.327 64.28 72.4617C64.9263 73.0506 65.7854 72.178 65.5949 71.4615C65.2908 70.3152 63.8909 70.4593 63.0237 70.7016C62.5664 70.8297 62.7706 71.5326 63.2287 71.4075L63.2273 71.4079Z" fill="#674BA0"/>
<path d="M56.9011 72.5893C57.5512 71.5277 59.0819 71.3088 59.9976 72.1509L60.042 71.7232C58.7512 72.5578 57.4097 73.0965 55.8559 73.1476C54.3022 73.1986 51.9728 72.8457 52.0566 70.8628C52.0613 70.7574 51.8933 70.7373 51.8721 70.8412C51.5129 72.6222 53.4672 73.3419 54.8934 73.4929C56.7481 73.6875 58.7736 73.2319 60.327 72.1849C60.4664 72.0899 60.509 71.8774 60.3714 71.7572C59.1965 70.7198 57.2909 71.0076 56.4948 72.3678C56.3435 72.6264 56.7452 72.8428 56.8996 72.5897L56.9011 72.5893Z" fill="#674BA0"/>
<path d="M54.2167 65.4936C53.8764 64.2008 52.7574 63.4658 51.5873 62.9698C50.8894 62.6729 50.1542 62.4413 49.501 62.0498C49.0326 61.7695 48.5024 61.3647 48.3489 60.8087C48.2776 60.5524 48.301 60.0636 48.5168 59.8616C48.6165 59.6244 48.7744 59.6538 48.9896 59.9468C49.5216 60.0869 49.5302 60.3711 49.0137 60.7982C48.1053 61.4512 47.0316 60.2867 46.4508 59.7188C45.8085 59.0886 45.1678 58.4581 44.526 57.8295C43.1715 56.4998 41.8045 55.1819 40.4378 53.8655L40.3365 54.2793C40.6329 54.1611 40.9299 54.0396 41.2276 53.9259C41.4386 53.8454 41.4603 53.594 41.278 53.4693C39.4483 52.2057 36.4729 52.0276 34.8797 53.8164C34.2515 54.5226 34.0116 55.5147 34.5681 56.3362C35.0464 57.0428 35.9509 57.3822 36.6539 56.8064C36.851 56.6451 36.6178 56.3893 36.4212 56.4256C35.6269 56.5763 34.8999 55.8699 35.0356 55.0827C35.1713 54.2954 35.8914 53.7787 36.5635 53.489C38.0202 52.8608 39.7116 53.0788 41.0368 53.9045L41.0871 53.4479C40.7924 53.5719 40.4941 53.689 40.1981 53.8086C40.03 53.8767 39.9535 54.0831 40.0968 54.2224C42.1832 56.2313 44.27 58.2417 46.3915 60.2164C47.027 60.8069 47.8119 61.4804 48.7522 61.2297C49.3556 61.0687 49.784 60.5151 49.5577 59.8907C49.3681 59.3708 48.8578 59.0899 48.3921 59.4654C47.8509 59.9013 47.8711 60.7282 48.1969 61.2805C49.4832 63.4642 53.1919 62.8063 53.9085 65.5879C53.9597 65.786 54.2661 65.697 54.2135 65.4993L54.2167 65.4936Z" fill="#674BA0"/>
<path d="M33.9109 52.0513C34.2292 51.3839 34.7097 50.844 35.3616 50.4848C36.0134 50.1257 36.6499 50.2275 37.2621 49.9695C37.3896 49.9165 37.445 49.7258 37.2982 49.6516C36.6734 49.3414 35.7781 49.7137 35.2172 50.0432C34.4874 50.4714 33.9404 51.1139 33.6187 51.8912C33.5383 52.0843 33.8168 52.2468 33.909 52.0502L33.9109 52.0513Z" fill="#674BA0"/>
<path d="M34.6648 47.4733C32.479 47.8521 30.6118 49.0127 29.5279 50.9738C29.0973 51.7523 28.6233 52.8396 28.7953 53.7521C28.9053 54.3351 29.5157 55.2259 30.1815 54.749C30.3251 54.6464 30.305 54.4169 30.1225 54.369C28.7959 54.0194 30.6027 50.8826 31.0544 50.3206C32.0127 49.1262 33.2549 48.1631 34.7738 47.8484C35.0222 47.797 34.9084 47.4329 34.6653 47.4748L34.6648 47.4733Z" fill="#674BA0"/>
<path d="M27.7311 51.1723C26.4001 52.1115 25.451 53.5146 25.1456 55.1215C25.0191 55.786 24.8988 56.6537 25.2246 57.278C25.4784 57.7647 26.0318 57.9675 26.4866 57.6208C26.5626 57.5619 26.5458 57.4098 26.4283 57.4199C25.0954 57.5349 25.8356 54.7112 26.0724 54.1172C26.4718 53.1156 27.1409 52.263 28.0102 51.6245C28.2841 51.4232 28.0143 50.97 27.7307 51.1709L27.7311 51.1723Z" fill="#674BA0"/>
<path d="M22.4711 56.7969C21.642 57.8448 21.0365 59.2698 21.6023 60.5819C22.0182 61.5437 23.364 62.6724 24.3617 61.8236C24.5036 61.704 24.4082 61.4642 24.2459 61.4249C24.0024 61.3659 23.7657 61.3082 23.5169 61.27C23.3724 61.2479 23.2935 61.4294 23.423 61.5103C23.6348 61.6425 23.8503 61.7544 24.0716 61.8695L24.2463 61.4264C23.3829 61.1071 22.5586 60.9831 22.2215 59.9777C21.8845 58.9722 22.3557 57.9306 22.9114 57.1189C23.0864 56.8647 22.6656 56.5546 22.4715 56.7984L22.4711 56.7969Z" fill="#674BA0"/>
<path d="M19.9892 62.0867C18.6091 64.3325 20.3437 67.3355 22.5805 68.2374C22.8513 68.3461 23.1191 68.0409 22.8932 67.8103C22.1245 67.0215 21.1889 66.4703 20.6226 65.4882C20.0563 64.5061 19.9623 63.3644 20.5324 62.3869C20.735 62.0398 20.1963 61.7495 19.9882 62.0886L19.9892 62.0867Z" fill="#674BA0"/>
<path d="M29.0375 73.5742C30.3541 74.3591 31.6651 74.915 33.164 75.2386C33.416 75.2935 33.5966 74.9096 33.3366 74.7993C32.0109 74.2317 30.6829 73.5734 29.4623 72.8038C28.9846 72.5022 28.5486 73.2839 29.0375 73.5742Z" fill="#674BA0"/>
<path d="M16.3858 74.9886C17.4001 78.8944 18.4472 82.7858 19.5301 86.6733C20.0645 88.5902 20.5934 90.5104 21.1564 92.4206C21.7355 94.3806 22.5324 96.2725 23.1836 98.21C23.2992 98.5527 23.8119 98.4054 23.7255 98.0525C23.2371 96.0678 22.8977 94.0429 22.335 92.0782C21.7722 90.1135 21.2064 88.2601 20.6286 86.3541C19.4603 82.4931 18.2589 78.6449 17.0225 74.8037C16.8918 74.3981 16.2769 74.5751 16.3844 74.9891L16.3858 74.9886Z" fill="#674BA0"/>
<path d="M92.25 51.2411C93.4542 55.6955 94.6683 60.1453 95.9322 64.5839C97.1939 69.0151 98.3269 73.5173 99.9874 77.8182C100.171 78.295 100.851 78.099 100.751 77.5963C99.8489 73.0751 98.3931 68.6667 97.084 64.2492C95.775 59.8318 94.4122 55.4171 93.0436 51.0106C92.8872 50.5052 92.1143 50.7297 92.253 51.2403L92.25 51.2411Z" fill="#674BA0"/>
<path d="M23.7276 97.9494C27.5273 103.192 32.8422 106.963 38.9542 109.078C45.7745 111.438 53.1139 111.556 60.1631 110.2C62.2464 109.8 64.3191 109.285 66.327 108.598C68.3611 107.901 70.4797 107.092 72.2875 105.915C72.7212 105.634 72.4229 104.966 71.9217 105.093C70.1425 105.539 68.4006 106.186 66.6505 106.733C64.9004 107.28 63.1947 107.764 61.4405 108.17C57.8838 108.992 54.2395 109.429 50.5887 109.38C44.1979 109.294 37.8743 107.677 32.3743 104.391C29.3668 102.593 26.59 100.281 24.4398 97.5103C24.1163 97.0934 23.4052 97.5082 23.7262 97.9499L23.7276 97.9494Z" fill="#674BA0"/>
<path d="M100.055 77.464C100.262 79.8956 99.5944 82.3122 98.4429 84.4499C97.2431 86.6753 95.4257 88.3996 94.0241 90.4722C93.8592 90.7171 94.1966 91.005 94.4279 90.8561C96.6302 89.4508 98.391 87.0785 99.5431 84.7661C100.672 82.4971 101.198 79.9743 100.821 77.4529C100.75 76.9819 100.012 76.9624 100.055 77.464Z" fill="#674BA0"/>
<path d="M95.3535 90.1516C91.7596 92.9733 88.0041 95.6529 84.1299 98.0788C80.2397 100.516 76.103 102.502 72.1711 104.857C71.7963 105.081 72.0608 105.693 72.4835 105.562C76.8829 104.209 81.0366 101.794 84.9052 99.3381C88.7737 96.8818 92.5083 94.0305 95.9291 90.862C96.3074 90.5118 95.7675 89.8248 95.352 90.1521L95.3535 90.1516Z" fill="#674BA0"/>
<path d="M72.9941 104.611C72 105.086 70.9416 105.427 69.9776 105.955C69.7308 106.089 69.9247 106.414 70.1634 106.374C71.2743 106.185 72.3327 105.662 73.3501 105.19C73.7432 105.007 73.3878 104.425 72.9945 104.613L72.9941 104.611Z" fill="#674BA0"/>
<path d="M60.8391 88.548C61.2674 90.4478 61.7213 92.3416 62.2097 94.2271C62.4477 95.146 62.7002 96.0591 62.9723 96.9681C63.1962 97.7166 63.3462 98.8356 63.9988 99.3298C64.1905 99.4759 64.4503 99.4196 64.5259 99.1767C64.7719 98.3878 64.2662 97.4153 64.0338 96.6597C63.7558 95.7524 63.4782 94.8466 63.2031 93.9385C62.6392 92.075 62.1266 90.1998 61.6593 88.3097C61.5269 87.7765 60.7202 88.0173 60.8406 88.5476L60.8391 88.548Z" fill="#674BA0"/>
<path d="M61.6766 87.8884C66.0222 87.6876 70.0111 85.8497 73.9127 84.082C75.9246 83.1709 77.9084 82.207 79.873 81.199C81.8375 80.1911 84.0082 79.285 85.5853 77.7171C85.822 77.4818 85.5604 77.1062 85.2598 77.1823C83.2296 77.6937 81.4293 78.9133 79.5842 79.8737C77.7392 80.8341 75.743 81.8272 73.8032 82.7655C69.9747 84.6192 65.9623 86.6577 61.6646 87.0511C61.1329 87.0999 61.1313 87.9123 61.6747 87.8873L61.6766 87.8884Z" fill="#674BA0"/>
<path d="M85.3685 76.9265C85.9295 76.6803 86.461 76.393 86.95 76.0203C87.3349 75.7259 87.8847 75.3804 87.8698 74.8483C87.8661 74.6972 87.7351 74.5559 87.5767 74.5635C87.0918 74.5907 86.7858 75.0575 86.4253 75.3416C85.9982 75.6787 85.5283 75.9513 85.0367 76.1822C84.6211 76.3766 84.9411 77.1132 85.367 76.927L85.3685 76.9265Z" fill="#674BA0"/>
<path d="M88.7085 74.049C89.1774 75.884 89.6607 77.7133 90.2026 79.5288C90.4586 80.388 90.7383 81.2404 91.0062 82.0962C91.2231 82.7874 91.3522 83.8452 92.0555 84.1934C92.1999 84.2651 92.3884 84.2232 92.467 84.0738C92.822 83.4054 92.3797 82.5795 92.1602 81.9178C91.8637 81.0191 91.5758 80.1163 91.266 79.2214C90.6448 77.4258 89.968 75.6543 89.2759 73.8857C89.1391 73.5363 88.6116 73.6768 88.7074 74.0509L88.7085 74.049Z" fill="#674BA0"/>
<path d="M66.1754 100.003C70.5822 98.7575 74.7919 96.9452 78.7922 94.7213C80.7867 93.6118 82.7255 92.4047 84.6002 91.1042C86.3666 89.8784 88.4176 88.61 89.6281 86.8026C89.8277 86.506 89.4358 86.2676 89.1825 86.3796C87.2202 87.2572 85.566 88.8636 83.8051 90.0861C82.0442 91.3087 80.0716 92.5432 78.1214 93.6335C74.2234 95.8116 70.1162 97.607 65.9262 99.1446C65.391 99.3417 65.6145 100.161 66.1754 100.003Z" fill="#674BA0"/>
<path d="M89.5613 85.1246L88.5452 85.8714C88.208 86.1199 87.9888 86.3437 87.7451 86.6819C87.5799 86.9093 87.8718 87.2617 88.128 87.16C88.5181 87.0051 88.791 86.8393 89.1144 86.5708L90.085 85.7668C90.4472 85.4662 89.9447 84.8419 89.5623 85.1227L89.5613 85.1246Z" fill="#674BA0"/>
<path d="M31.2362 89.3544C36.4621 89.8956 42.0542 89.7298 47.0832 88.0846C47.4088 87.9788 47.2613 87.5316 46.9381 87.5854C41.6909 88.4629 36.5425 89.0395 31.2239 88.4885C30.6691 88.4302 30.6863 89.2964 31.2343 89.3534L31.2362 89.3544Z" fill="#674BA0"/>
<path d="M91.9506 65.4796C91.2462 66.5586 90.4586 67.6057 90.0012 68.8164C89.8704 69.1618 90.3634 69.3613 90.5893 69.1387C91.514 68.2263 92.1499 67.0551 92.85 65.9726C93.2088 65.4167 92.3096 64.9301 91.9506 65.4796Z" fill="#674BA0"/>
<path d="M96.7516 79.4517C96.6763 79.9332 96.5674 80.4036 96.6187 80.8899C96.6402 81.0855 96.9233 81.2034 97.0255 80.9912C97.2362 80.5504 97.2941 80.0868 97.3819 79.6097C97.4579 79.1969 96.8157 79.0424 96.7516 79.4517Z" fill="#674BA0"/>
<path d="M47.607 107.29C50.3836 107.928 53.8838 108.122 56.4395 106.662C56.7604 106.479 56.6191 105.898 56.2301 105.941C54.8633 106.088 53.5229 106.415 52.1467 106.492C50.7704 106.568 49.2973 106.443 47.9005 106.129C47.1482 105.96 46.8534 107.117 47.607 107.29Z" fill="#674BA0"/>
</g>
<defs>
<clipPath id="clip0_0_222">
<rect width="83.304" height="100.516" fill="white" transform="translate(0 23.2409) rotate(-16.1999)"/>
</clipPath>
</defs>
</svg>
